<svg xmlns="http://www.w3.org/2000/svg" viewBox="0 0 1493.91 1502"><defs><style>.cls-1{stroke:#000;stroke-linecap:round;stroke-linejoin:round;stroke-width:6px;}</style></defs><g id="FUCK"><g id="LOREM"><path d="M3.6,1340H7v31.4H18.47v3.79H3.6Z" transform="translate(-0.47 -57)"/><path d="M20.88,1362.2c0-8.69,4.28-13.73,9.07-13.73s9.07,5,9.07,13.73-4.28,13.63-9.07,13.63S20.88,1370.84,20.88,1362.2Zm14.76,0c0-6-2.31-10.08-5.69-10.08s-5.65,4.08-5.65,10.08,2.27,10,5.65,10S35.64,1368.2,35.64,1362.2Z" transform="translate(-0.47 -57)"/><path d="M44.17,1349.14h2.7l.29,4.75h.11c1.36-3.31,3.34-5.42,5.54-5.42a3.34,3.34,0,0,1,2.09.57l-.61,3.84a3.69,3.69,0,0,0-1.91-.43c-1.62,0-3.64,1.54-4.93,6v16.76H44.17Z" transform="translate(-0.47 -57)"/><path d="M56.27,1362.2c0-8.45,4.28-13.73,8.82-13.73,5,0,7.77,4.8,7.77,12.24a23.45,23.45,0,0,1-.14,2.5H59.54c.22,5.56,2.77,9.12,6.48,9.12a7.09,7.09,0,0,0,4.9-2.07l1.19,2.88a9.79,9.79,0,0,1-6.48,2.69C60.44,1375.83,56.27,1370.79,56.27,1362.2ZM70,1360.09c0-5.28-1.8-8.12-4.86-8.12-2.77,0-5.22,3-5.61,8.12Z" transform="translate(-0.47 -57)"/><path d="M77.69,1349.14h2.7l.28,3.79h.11c1.69-2.49,3.75-4.46,6.09-4.46,3,0,4.6,1.92,5.39,5,2-2.93,4.07-5,6.45-5,4,0,5.94,3.55,5.94,10.22v16.52h-3.28v-15.94c0-4.9-1.15-7-3.63-7-1.52,0-3.1,1.3-4.94,4v18.92H89.53v-15.94c0-4.9-1.15-7-3.64-7-1.47,0-3.13,1.3-4.93,4v18.92H77.69Z" transform="translate(-0.47 -57)"/><path d="M121,1340.93c0-1.77,1-2.83,2.27-2.83s2.26,1.06,2.26,2.83-1,2.83-2.26,2.83S121,1342.56,121,1340.93Zm.61,8.21h3.27v26.07h-3.27Z" transform="translate(-0.47 -57)"/><path d="M131.55,1349.14h2.7l.29,3h.1c1.77-1.92,4-3.65,6.23-3.65,5,0,7.78,5.28,7.78,13.3,0,8.92-4,14.06-8.5,14.06-1.76,0-3.63-1.1-5.4-3l.07,4.56v8.83h-3.27Zm13.68,12.67c0-5.76-1.44-9.64-5.15-9.64-1.66,0-3.35,1.24-5.26,3.6v13.68c1.77,2,3.5,2.73,4.79,2.73C142.85,1372.18,145.23,1368.29,145.23,1361.81Z" transform="translate(-0.47 -57)"/><path d="M151.67,1372.23l1.62-2.88c1.69,1.82,3.46,3.07,5.8,3.07,2.59,0,3.85-1.82,3.85-4.08,0-2.64-2.3-3.84-4.46-4.94-2.74-1.35-5.84-3.12-5.84-7.54,0-4.13,2.49-7.39,6.74-7.39a8.75,8.75,0,0,1,6.08,2.93l-1.58,2.83c-1.37-1.35-2.74-2.31-4.5-2.31-2.45,0-3.57,1.73-3.57,3.75,0,2.5,2.13,3.41,4.32,4.51,2.84,1.44,6,3,6,7.92,0,4.23-2.52,7.73-7.13,7.73A10.28,10.28,0,0,1,151.67,1372.23Z" transform="translate(-0.47 -57)"/><path d="M170.46,1365.65v-16.51h3.28v16c0,4.84,1.08,6.91,3.67,6.91,2,0,3.42-1.3,5.29-4.42v-18.48H186v26.07h-2.74l-.25-4.08h-.11c-1.83,2.83-3.78,4.7-6.48,4.7C172.3,1375.83,170.46,1372.28,170.46,1365.65Z" transform="translate(-0.47 -57)"/><path d="M192.57,1349.14h2.7l.28,3.79h.11c1.69-2.49,3.75-4.46,6.09-4.46,3,0,4.6,1.92,5.4,5,2-2.93,4.06-5,6.44-5,4,0,5.94,3.55,5.94,10.22v16.52h-3.28v-15.94c0-4.9-1.15-7-3.63-7-1.51,0-3.1,1.3-4.93,4v18.92h-3.28v-15.94c0-4.9-1.15-7-3.64-7-1.47,0-3.13,1.3-4.93,4v18.92h-3.27Z" transform="translate(-0.47 -57)"/><path d="M235.13,1362.2c0-8.45,4-13.73,8.46-13.73,2.3,0,3.78,1.15,5.5,3.07l-.18-4.51v-10h3.28v38.21h-2.67l-.32-3.08h-.07c-1.55,2-3.6,3.7-5.94,3.7C238.29,1375.83,235.13,1370.89,235.13,1362.2Zm13.78,6.38V1354.9c-1.65-2-3.13-2.73-4.75-2.73-3.17,0-5.65,4-5.65,10,0,6.29,1.94,10,5.4,10C245.71,1372.18,247.29,1371,248.91,1368.58Z" transform="translate(-0.47 -57)"/><path d="M257.38,1362.2c0-8.69,4.28-13.73,9.07-13.73s9.07,5,9.07,13.73-4.29,13.63-9.07,13.63S257.38,1370.84,257.38,1362.2Zm14.75,0c0-6-2.3-10.08-5.68-10.08s-5.66,4.08-5.66,10.08,2.27,10,5.66,10S272.13,1368.2,272.13,1362.2Z" transform="translate(-0.47 -57)"/><path d="M280.67,1370v-33h3.27v33.31c0,1.34.43,1.87.94,1.87a2.3,2.3,0,0,0,.68-.09l.47,3.36a4,4,0,0,1-1.91.38C281.67,1375.83,280.67,1373.72,280.67,1370Z" transform="translate(-0.47 -57)"/><path d="M289.45,1362.2c0-8.69,4.28-13.73,9.07-13.73s9.07,5,9.07,13.73-4.28,13.63-9.07,13.63S289.45,1370.84,289.45,1362.2Zm14.76,0c0-6-2.31-10.08-5.69-10.08s-5.65,4.08-5.65,10.08,2.27,10,5.65,10S304.21,1368.2,304.21,1362.2Z" transform="translate(-0.47 -57)"/><path d="M312.74,1349.14h2.7l.29,4.75h.11c1.37-3.31,3.34-5.42,5.54-5.42a3.34,3.34,0,0,1,2.09.57l-.61,3.84a3.69,3.69,0,0,0-1.91-.43c-1.62,0-3.64,1.54-4.93,6v16.76h-3.28Z" transform="translate(-0.47 -57)"/><path d="M335.14,1372.23l1.62-2.88c1.69,1.82,3.45,3.07,5.79,3.07,2.6,0,3.86-1.82,3.86-4.08,0-2.64-2.31-3.84-4.47-4.94-2.73-1.35-5.83-3.12-5.83-7.54,0-4.13,2.48-7.39,6.73-7.39a8.77,8.77,0,0,1,6.09,2.93l-1.59,2.83c-1.37-1.35-2.73-2.31-4.5-2.31-2.45,0-3.56,1.73-3.56,3.75,0,2.5,2.12,3.41,4.32,4.51,2.84,1.44,6,3,6,7.92,0,4.23-2.52,7.73-7.12,7.73A10.26,10.26,0,0,1,335.14,1372.23Z" transform="translate(-0.47 -57)"/><path d="M353.57,1340.93c0-1.77,1-2.83,2.27-2.83s2.27,1.06,2.27,2.83-1,2.83-2.27,2.83S353.57,1342.56,353.57,1340.93Zm.61,8.21h3.28v26.07h-3.28Z" transform="translate(-0.47 -57)"/><path d="M364.66,1367.14v-14.45h-2.92v-3.31l3.06-.24.4-7.3h2.73v7.3h5.29v3.55h-5.29v14.55c0,3.22.76,5,3,5a5.62,5.62,0,0,0,2.23-.67l.65,3.26a9.74,9.74,0,0,1-3.6,1C366.06,1375.83,364.66,1372.38,364.66,1367.14Z" transform="translate(-0.47 -57)"/><path d="M387.06,1368.44c0-5.67,3.7-8.5,12-9.75,0-3.36-.83-6.57-4-6.57-2.27,0-4.32,1.39-5.87,2.78l-1.3-3c1.8-1.54,4.58-3.41,7.71-3.41,4.75,0,6.76,4.27,6.76,10.7v16h-2.7l-.28-3.12h-.11c-1.87,2.06-4.07,3.74-6.48,3.74C389.5,1375.83,387.06,1373.14,387.06,1368.44Zm12,.43v-7.3c-6.59,1.06-8.82,3.22-8.82,6.58,0,3,1.51,4.18,3.45,4.18S397.17,1371.13,399.08,1368.87Z" transform="translate(-0.47 -57)"/><path d="M408.58,1349.14h2.7l.29,3.79h.11c1.69-2.49,3.74-4.46,6.08-4.46,3,0,4.61,1.92,5.4,5,2-2.93,4.07-5,6.44-5,4,0,5.94,3.55,5.94,10.22v16.52h-3.27v-15.94c0-4.9-1.15-7-3.64-7-1.51,0-3.09,1.3-4.93,4v18.92h-3.27v-15.94c0-4.9-1.16-7-3.64-7-1.48,0-3.13,1.3-4.93,4v18.92h-3.28Z" transform="translate(-0.47 -57)"/><path d="M440.44,1362.2c0-8.45,4.29-13.73,8.82-13.73,5,0,7.78,4.8,7.78,12.24a23.12,23.12,0,0,1-.15,2.5H443.72c.21,5.56,2.77,9.12,6.48,9.12a7.07,7.07,0,0,0,4.89-2.07l1.19,2.88a9.77,9.77,0,0,1-6.48,2.69C444.62,1375.83,440.44,1370.79,440.44,1362.2Zm13.72-2.11c0-5.28-1.8-8.12-4.86-8.12-2.77,0-5.22,3-5.62,8.12Z" transform="translate(-0.47 -57)"/><path d="M462,1367.14v-14.45h-2.91v-3.31l3.06-.24.39-7.3h2.74v7.3h5.29v3.55h-5.29v14.55c0,3.22.75,5,3,5a5.53,5.53,0,0,0,2.23-.67l.65,3.26a9.64,9.64,0,0,1-3.6,1C463.45,1375.83,462,1372.38,462,1367.14Z" transform="translate(-0.47 -57)"/><path d="M473.89,1381.74a7.35,7.35,0,0,0,3.6-6.53,1.39,1.39,0,0,1-.4,0c-1.26,0-2.41-1-2.41-3.07s1.15-3.07,2.48-3.07c1.73,0,2.77,2,2.77,5.18,0,4.61-2,8.21-5.25,10Z" transform="translate(-0.47 -57)"/><path d="M494.45,1362.2c0-8.69,4.43-13.73,9.43-13.73,2.56,0,4.32,1.44,5.72,3.07l-1.69,2.93c-1.15-1.39-2.34-2.35-3.92-2.35-3.53,0-6.12,4.08-6.12,10.08s2.45,10,6.05,10a6.16,6.16,0,0,0,4.6-2.59l1.41,2.93a8.23,8.23,0,0,1-6.3,3.31C498.44,1375.83,494.45,1370.84,494.45,1362.2Z" transform="translate(-0.47 -57)"/><path d="M511.91,1362.2c0-8.69,4.28-13.73,9.07-13.73s9.07,5,9.07,13.73-4.28,13.63-9.07,13.63S511.91,1370.84,511.91,1362.2Zm14.76,0c0-6-2.31-10.08-5.69-10.08s-5.65,4.08-5.65,10.08,2.27,10,5.65,10S526.67,1368.2,526.67,1362.2Z" transform="translate(-0.47 -57)"/><path d="M535.2,1349.14h2.7l.29,3.74h.11c1.87-2.44,3.88-4.41,6.55-4.41,4.1,0,6,3.55,6,10.22v16.52h-3.27v-15.94c0-4.9-1.12-7-3.71-7-2,0-3.38,1.34-5.36,4v18.92H535.2Z" transform="translate(-0.47 -57)"/><path d="M555,1372.23l1.62-2.88c1.69,1.82,3.46,3.07,5.8,3.07,2.59,0,3.85-1.82,3.85-4.08,0-2.64-2.31-3.84-4.47-4.94-2.73-1.35-5.83-3.12-5.83-7.54,0-4.13,2.49-7.39,6.73-7.39a8.75,8.75,0,0,1,6.09,2.93l-1.59,2.83c-1.37-1.35-2.73-2.31-4.5-2.31-2.44,0-3.56,1.73-3.56,3.75,0,2.5,2.12,3.41,4.32,4.51,2.84,1.44,6,3,6,7.92,0,4.23-2.51,7.73-7.12,7.73A10.28,10.28,0,0,1,555,1372.23Z" transform="translate(-0.47 -57)"/><path d="M572.57,1362.2c0-8.45,4.28-13.73,8.82-13.73,5,0,7.77,4.8,7.77,12.24a23.45,23.45,0,0,1-.14,2.5H575.84c.22,5.56,2.78,9.12,6.48,9.12a7.09,7.09,0,0,0,4.9-2.07l1.19,2.88a9.79,9.79,0,0,1-6.48,2.69C576.74,1375.83,572.57,1370.79,572.57,1362.2Zm13.71-2.11c0-5.28-1.8-8.12-4.86-8.12-2.77,0-5.22,3-5.61,8.12Z" transform="translate(-0.47 -57)"/><path d="M592.51,1362.2c0-8.69,4.43-13.73,9.43-13.73,2.56,0,4.32,1.44,5.73,3.07l-1.7,2.93c-1.15-1.39-2.34-2.35-3.92-2.35-3.53,0-6.12,4.08-6.12,10.08s2.45,10,6.05,10a6.2,6.2,0,0,0,4.61-2.59l1.4,2.93a8.23,8.23,0,0,1-6.3,3.31C596.51,1375.83,592.51,1370.84,592.51,1362.2Z" transform="translate(-0.47 -57)"/><path d="M612.49,1367.14v-14.45h-2.91v-3.31l3-.24.4-7.3h2.74v7.3h5.29v3.55h-5.29v14.55c0,3.22.75,5,3,5a5.62,5.62,0,0,0,2.23-.67l.65,3.26a9.69,9.69,0,0,1-3.6,1C613.89,1375.83,612.49,1372.38,612.49,1367.14Z" transform="translate(-0.47 -57)"/><path d="M623.47,1362.2c0-8.45,4.28-13.73,8.82-13.73,5,0,7.78,4.8,7.78,12.24a23.12,23.12,0,0,1-.15,2.5H626.75c.21,5.56,2.77,9.12,6.48,9.12a7.09,7.09,0,0,0,4.89-2.07l1.19,2.88a9.79,9.79,0,0,1-6.48,2.69C627.65,1375.83,623.47,1370.79,623.47,1362.2Zm13.72-2.11c0-5.28-1.8-8.12-4.86-8.12-2.78,0-5.22,3-5.62,8.12Z" transform="translate(-0.47 -57)"/><path d="M645.07,1367.14v-14.45h-2.91v-3.31l3.05-.24.4-7.3h2.74v7.3h5.29v3.55h-5.29v14.55c0,3.22.75,5,3,5a5.62,5.62,0,0,0,2.23-.67l.65,3.26a9.69,9.69,0,0,1-3.6,1C646.47,1375.83,645.07,1372.38,645.07,1367.14Z" transform="translate(-0.47 -57)"/><path d="M657.82,1365.65v-16.51h3.27v16c0,4.84,1.08,6.91,3.67,6.91,2,0,3.42-1.3,5.29-4.42v-18.48h3.28v26.07h-2.74l-.25-4.08h-.11c-1.83,2.83-3.78,4.7-6.48,4.7C659.65,1375.83,657.82,1372.28,657.82,1365.65Z" transform="translate(-0.47 -57)"/><path d="M678.44,1362.2c0-8.45,4.29-13.73,8.82-13.73,5,0,7.78,4.8,7.78,12.24a23.12,23.12,0,0,1-.15,2.5H681.72c.21,5.56,2.77,9.12,6.48,9.12a7.07,7.07,0,0,0,4.89-2.07l1.19,2.88a9.77,9.77,0,0,1-6.48,2.69C682.62,1375.83,678.44,1370.79,678.44,1362.2Zm13.72-2.11c0-5.28-1.8-8.12-4.86-8.12-2.77,0-5.22,3-5.62,8.12Z" transform="translate(-0.47 -57)"/><path d="M699.86,1349.14h2.7l.29,4.75H703c1.37-3.31,3.35-5.42,5.54-5.42a3.32,3.32,0,0,1,2.09.57l-.61,3.84a3.69,3.69,0,0,0-1.91-.43c-1.62,0-3.64,1.54-4.93,6v16.76h-3.28Z" transform="translate(-0.47 -57)"/><path d="M723.23,1368.44c0-5.67,3.71-8.5,12-9.75,0-3.36-.83-6.57-4-6.57-2.26,0-4.32,1.39-5.86,2.78l-1.3-3c1.8-1.54,4.57-3.41,7.7-3.41,4.76,0,6.77,4.27,6.77,10.7v16h-2.7l-.29-3.12h-.1c-1.88,2.06-4.07,3.74-6.48,3.74C725.68,1375.83,723.23,1373.14,723.23,1368.44Zm12,.43v-7.3c-6.59,1.06-8.82,3.22-8.82,6.58,0,3,1.51,4.18,3.45,4.18S733.35,1371.13,735.26,1368.87Z" transform="translate(-0.47 -57)"/><path d="M743.36,1362.2c0-8.45,4-13.73,8.46-13.73,2.3,0,3.78,1.15,5.5,3.07l-.18-4.51v-10h3.28v38.21h-2.67l-.32-3.08h-.07c-1.55,2-3.6,3.7-5.94,3.7C746.52,1375.83,743.36,1370.89,743.36,1362.2Zm13.78,6.38V1354.9c-1.65-2-3.13-2.73-4.75-2.73-3.17,0-5.65,4-5.65,10,0,6.29,1.94,10,5.4,10C753.94,1372.18,755.52,1371,757.14,1368.58Z" transform="translate(-0.47 -57)"/><path d="M766.47,1340.93c0-1.77,1-2.83,2.27-2.83s2.26,1.06,2.26,2.83-1,2.83-2.26,2.83S766.47,1342.56,766.47,1340.93Zm.61,8.21h3.28v26.07h-3.28Z" transform="translate(-0.47 -57)"/><path d="M777,1349.14h2.7l.29,3h.11c1.76-1.92,4-3.65,6.22-3.65,5,0,7.78,5.28,7.78,13.3,0,8.92-4,14.06-8.5,14.06-1.76,0-3.63-1.1-5.4-3l.07,4.56v8.83H777Zm13.68,12.67c0-5.76-1.44-9.64-5.15-9.64-1.66,0-3.35,1.24-5.26,3.6v13.68c1.77,2,3.5,2.73,4.79,2.73C788.28,1372.18,790.66,1368.29,790.66,1361.81Z" transform="translate(-0.47 -57)"/><path d="M798.69,1340.93c0-1.77,1-2.83,2.27-2.83s2.26,1.06,2.26,2.83-1,2.83-2.26,2.83S798.69,1342.56,798.69,1340.93Zm.61,8.21h3.27v26.07H799.3Z" transform="translate(-0.47 -57)"/><path d="M807,1372.23l1.62-2.88c1.69,1.82,3.46,3.07,5.8,3.07,2.59,0,3.85-1.82,3.85-4.08,0-2.64-2.3-3.84-4.46-4.94-2.74-1.35-5.84-3.12-5.84-7.54,0-4.13,2.49-7.39,6.74-7.39a8.75,8.75,0,0,1,6.08,2.93l-1.58,2.83c-1.37-1.35-2.74-2.31-4.5-2.31-2.45,0-3.57,1.73-3.57,3.75,0,2.5,2.13,3.41,4.32,4.51,2.84,1.44,6,3,6,7.92,0,4.23-2.52,7.73-7.13,7.73A10.28,10.28,0,0,1,807,1372.23Z" transform="translate(-0.47 -57)"/><path d="M824.57,1362.2c0-8.69,4.43-13.73,9.43-13.73,2.56,0,4.32,1.44,5.72,3.07l-1.69,2.93c-1.15-1.39-2.34-2.35-3.92-2.35-3.53,0-6.12,4.08-6.12,10.08s2.45,10,6,10a6.16,6.16,0,0,0,4.6-2.59l1.41,2.93a8.23,8.23,0,0,1-6.3,3.31C828.57,1375.83,824.57,1370.84,824.57,1362.2Z" transform="translate(-0.47 -57)"/><path d="M843.76,1340.93c0-1.77,1-2.83,2.27-2.83s2.26,1.06,2.26,2.83-1,2.83-2.26,2.83S843.76,1342.56,843.76,1340.93Zm.61,8.21h3.27v26.07h-3.27Z" transform="translate(-0.47 -57)"/><path d="M854.27,1349.14H857l.29,3.74h.1c1.88-2.44,3.89-4.41,6.56-4.41,4.1,0,6,3.55,6,10.22v16.52h-3.27v-15.94c0-4.9-1.12-7-3.71-7-2,0-3.39,1.34-5.37,4v18.92h-3.27Z" transform="translate(-0.47 -57)"/><path d="M874.75,1380.2a7.88,7.88,0,0,1,2.92-5.91v-.19a5.13,5.13,0,0,1-1.8-4.27,6.92,6.92,0,0,1,2.19-4.85v-.19a10.48,10.48,0,0,1-2.55-7c0-5.71,3.38-9.31,7.34-9.31a6.31,6.31,0,0,1,2.74.67h6.8v3.36h-4a8.94,8.94,0,0,1,1.58,5.38c0,5.57-3.17,9.07-7.13,9.07a5.48,5.48,0,0,1-2.91-.91,4.33,4.33,0,0,0-1.26,3.12c0,1.68.79,2.83,3.42,2.83h3.81c4.54,0,6.8,1.92,6.8,6.19,0,4.85-3.81,9-9.86,9C878.06,1387.21,874.75,1384.71,874.75,1380.2Zm14.8-1.34c0-2.4-1.41-3.22-4-3.22h-3.38a8.33,8.33,0,0,1-2.52-.43,6,6,0,0,0-2,4.41c0,2.79,2.13,4.61,5.69,4.61C887.06,1384.23,889.55,1381.59,889.55,1378.86ZM887,1357.78c0-3.79-1.83-6.1-4.14-6.1s-4.17,2.26-4.17,6.1,1.9,6.19,4.17,6.19S887,1361.57,887,1357.78Z" transform="translate(-0.47 -57)"/><path d="M905.68,1362.2c0-8.45,4.29-13.73,8.82-13.73,5,0,7.78,4.8,7.78,12.24a23.12,23.12,0,0,1-.15,2.5H909c.21,5.56,2.77,9.12,6.48,9.12a7.09,7.09,0,0,0,4.89-2.07l1.19,2.88a9.77,9.77,0,0,1-6.48,2.69C909.86,1375.83,905.68,1370.79,905.68,1362.2Zm13.72-2.11c0-5.28-1.8-8.12-4.86-8.12-2.77,0-5.22,3-5.62,8.12Z" transform="translate(-0.47 -57)"/><path d="M927.1,1370v-33h3.28v33.31c0,1.34.43,1.87.93,1.87a2.36,2.36,0,0,0,.69-.09l.46,3.36a4,4,0,0,1-1.9.38C928.11,1375.83,927.1,1373.72,927.1,1370Z" transform="translate(-0.47 -57)"/><path d="M936.75,1340.93c0-1.77,1-2.83,2.27-2.83s2.27,1.06,2.27,2.83-1,2.83-2.27,2.83S936.75,1342.56,936.75,1340.93Zm.61,8.21h3.28v26.07h-3.28Z" transform="translate(-0.47 -57)"/><path d="M947.84,1367.14v-14.45h-2.92v-3.31l3.06-.24.4-7.3h2.73v7.3h5.29v3.55h-5.29v14.55c0,3.22.76,5,3,5a5.62,5.62,0,0,0,2.23-.67l.65,3.26a9.74,9.74,0,0,1-3.6,1C949.24,1375.83,947.84,1372.38,947.84,1367.14Z" transform="translate(-0.47 -57)"/><path d="M959.68,1381.74a7.35,7.35,0,0,0,3.6-6.53,1.33,1.33,0,0,1-.4,0c-1.26,0-2.41-1-2.41-3.07s1.15-3.07,2.49-3.07c1.72,0,2.77,2,2.77,5.18,0,4.61-2,8.21-5.26,10Z" transform="translate(-0.47 -57)"/><path d="M979.52,1372.23l1.62-2.88c1.69,1.82,3.46,3.07,5.8,3.07,2.59,0,3.85-1.82,3.85-4.08,0-2.64-2.31-3.84-4.47-4.94-2.73-1.35-5.83-3.12-5.83-7.54,0-4.13,2.49-7.39,6.73-7.39a8.75,8.75,0,0,1,6.09,2.93l-1.59,2.83c-1.36-1.35-2.73-2.31-4.5-2.31-2.44,0-3.56,1.73-3.56,3.75,0,2.5,2.12,3.41,4.32,4.51,2.84,1.44,6,3,6,7.92,0,4.23-2.52,7.73-7.13,7.73A10.28,10.28,0,0,1,979.52,1372.23Z" transform="translate(-0.47 -57)"/><path d="M997.09,1362.2c0-8.45,4.28-13.73,8.82-13.73,5,0,7.77,4.8,7.77,12.24a23.45,23.45,0,0,1-.14,2.5h-13.18c.22,5.56,2.78,9.12,6.48,9.12a7.09,7.09,0,0,0,4.9-2.07l1.19,2.88a9.79,9.79,0,0,1-6.48,2.69C1001.26,1375.83,997.09,1370.79,997.09,1362.2Zm13.71-2.11c0-5.28-1.8-8.12-4.86-8.12-2.77,0-5.22,3-5.61,8.12Z" transform="translate(-0.47 -57)"/><path d="M1017.1,1362.2c0-8.45,4-13.73,8.46-13.73,2.31,0,3.78,1.15,5.51,3.07l-.18-4.51v-10h3.28v38.21h-2.67l-.32-3.08h-.07c-1.55,2-3.6,3.7-5.94,3.7C1020.27,1375.83,1017.1,1370.89,1017.1,1362.2Zm13.79,6.38V1354.9c-1.66-2-3.13-2.73-4.75-2.73-3.17,0-5.65,4-5.65,10,0,6.29,1.94,10,5.4,10C1027.69,1372.18,1029.27,1371,1030.89,1368.58Z" transform="translate(-0.47 -57)"/><path d="M1050.05,1362.2c0-8.45,4-13.73,8.46-13.73,2.3,0,3.78,1.15,5.51,3.07l-.18-4.51v-10h3.27v38.21h-2.66l-.32-3.08h-.08c-1.54,2-3.6,3.7-5.94,3.7C1053.22,1375.83,1050.05,1370.89,1050.05,1362.2Zm13.79,6.38V1354.9c-1.66-2-3.13-2.73-4.75-2.73-3.17,0-5.66,4-5.66,10,0,6.29,2,10,5.4,10C1060.63,1372.18,1062.22,1371,1063.84,1368.58Z" transform="translate(-0.47 -57)"/><path d="M1073.16,1340.93c0-1.77,1-2.83,2.27-2.83s2.27,1.06,2.27,2.83-1,2.83-2.27,2.83S1073.16,1342.56,1073.16,1340.93Zm.62,8.21h3.27v26.07h-3.27Z" transform="translate(-0.47 -57)"/><path d="M1082.45,1368.44c0-5.67,3.71-8.5,12-9.75,0-3.36-.82-6.57-4-6.57-2.27,0-4.32,1.39-5.86,2.78l-1.3-3c1.8-1.54,4.57-3.41,7.7-3.41,4.75,0,6.77,4.27,6.77,10.7v16h-2.7l-.29-3.12h-.11c-1.87,2.06-4.06,3.74-6.48,3.74C1084.9,1375.83,1082.45,1373.14,1082.45,1368.44Zm12,.43v-7.3c-6.58,1.06-8.82,3.22-8.82,6.58,0,3,1.52,4.18,3.46,4.18S1092.57,1371.13,1094.47,1368.87Z" transform="translate(-0.47 -57)"/><path d="M1104,1349.14h2.7l.29,3.79h.1c1.7-2.49,3.75-4.46,6.09-4.46,3,0,4.6,1.92,5.4,5,2-2.93,4.06-5,6.44-5,4,0,5.94,3.55,5.94,10.22v16.52h-3.28v-15.94c0-4.9-1.15-7-3.63-7-1.51,0-3.1,1.3-4.93,4v18.92h-3.28v-15.94c0-4.9-1.15-7-3.63-7-1.48,0-3.14,1.3-4.94,4v18.92H1104Z" transform="translate(-0.47 -57)"/><path d="M1147.94,1349.14h2.7l.29,3.74h.11c1.87-2.44,3.88-4.41,6.55-4.41,4.1,0,6,3.55,6,10.22v16.52h-3.27v-15.94c0-4.9-1.12-7-3.71-7-2,0-3.38,1.34-5.36,4v18.92h-3.28Z" transform="translate(-0.47 -57)"/><path d="M1168.46,1362.2c0-8.69,4.29-13.73,9.07-13.73s9.07,5,9.07,13.73-4.28,13.63-9.07,13.63S1168.46,1370.84,1168.46,1362.2Zm14.76,0c0-6-2.3-10.08-5.69-10.08s-5.65,4.08-5.65,10.08,2.27,10,5.65,10S1183.22,1368.2,1183.22,1362.2Z" transform="translate(-0.47 -57)"/><path d="M1191.75,1349.14h2.7l.29,3.74h.11c1.87-2.44,3.89-4.41,6.55-4.41,4.1,0,6,3.55,6,10.22v16.52h-3.28v-15.94c0-4.9-1.12-7-3.71-7-2,0-3.38,1.34-5.36,4v18.92h-3.28Z" transform="translate(-0.47 -57)"/><path d="M1213.5,1365.65v-16.51h3.27v16c0,4.84,1.08,6.91,3.67,6.91,2,0,3.42-1.3,5.3-4.42v-18.48H1229v26.07h-2.73l-.26-4.08h-.1c-1.84,2.83-3.78,4.7-6.48,4.7C1215.33,1375.83,1213.5,1372.28,1213.5,1365.65Z" transform="translate(-0.47 -57)"/><path d="M1235.6,1349.14h2.7l.29,3.79h.11c1.69-2.49,3.74-4.46,6.08-4.46,3,0,4.61,1.92,5.4,5,2-2.93,4.07-5,6.44-5,4,0,5.94,3.55,5.94,10.22v16.52h-3.27v-15.94c0-4.9-1.16-7-3.64-7-1.51,0-3.1,1.3-4.93,4v18.92h-3.28v-15.94c0-4.9-1.15-7-3.63-7-1.48,0-3.13,1.3-4.93,4v18.92h-3.28Z" transform="translate(-0.47 -57)"/><path d="M1268.94,1349.14h2.7l.28,3.79h.11c1.69-2.49,3.75-4.46,6.09-4.46,3,0,4.6,1.92,5.39,5,2-2.93,4.07-5,6.45-5,4,0,5.94,3.55,5.94,10.22v16.52h-3.28v-15.94c0-4.9-1.15-7-3.63-7-1.52,0-3.1,1.3-4.94,4v18.92h-3.27v-15.94c0-4.9-1.15-7-3.64-7-1.47,0-3.13,1.3-4.93,4v18.92h-3.27Z" transform="translate(-0.47 -57)"/><path d="M1300.29,1385.91l.65-3.5a3.75,3.75,0,0,0,1.48.43c2.23,0,3.63-2.4,4.42-5.62l.44-2-7.85-26.11h3.42l4,14.5c.58,2.25,1.26,4.94,1.88,7.29h.18c.54-2.35,1.11-5,1.65-7.29l3.49-14.5h3.21l-7.38,28.23c-1.37,5.13-3.39,9.07-7.27,9.07A4.67,4.67,0,0,1,1300.29,1385.91Z" transform="translate(-0.47 -57)"/><path d="M1331.65,1349.14h2.7l.29,3.74h.11c1.87-2.44,3.89-4.41,6.55-4.41,4.1,0,6,3.55,6,10.22v16.52H1344v-15.94c0-4.9-1.12-7-3.71-7-2,0-3.38,1.34-5.36,4v18.92h-3.28Z" transform="translate(-0.47 -57)"/><path d="M1353,1340.93c0-1.77,1-2.83,2.27-2.83s2.26,1.06,2.26,2.83-1,2.83-2.26,2.83S1353,1342.56,1353,1340.93Zm.61,8.21h3.28v26.07h-3.28Z" transform="translate(-0.47 -57)"/><path d="M1366.57,1372.52h-.1l-.29,2.69h-2.63V1337h3.28v10.46l-.11,4.71c1.76-2.07,4-3.7,6.12-3.7,5.07,0,7.81,5.28,7.81,13.25,0,9-4,14.11-8.5,14.11C1370.35,1375.83,1368.3,1374.63,1366.57,1372.52Zm10.66-10.71c0-5.76-1.44-9.64-5.15-9.64-1.66,0-3.38,1.24-5.25,3.6v13.68c1.72,2,3.49,2.73,4.78,2.73C1374.85,1372.18,1377.23,1368.29,1377.23,1361.81Z" transform="translate(-0.47 -57)"/><path d="M1385.8,1337h3.27v10.46l-.1,5.38c1.8-2.4,3.81-4.37,6.47-4.37,4.11,0,6,3.55,6,10.22v16.52h-3.28v-15.94c0-4.9-1.11-7-3.7-7-2,0-3.39,1.34-5.37,4v18.92h-3.27Z" transform="translate(-0.47 -57)"/><path d="M1416.8,1362.2c0-8.45,4.28-13.73,8.82-13.73,5,0,7.77,4.8,7.77,12.24a23.45,23.45,0,0,1-.14,2.5h-13.17c.21,5.56,2.77,9.12,6.47,9.12a7.09,7.09,0,0,0,4.9-2.07l1.19,2.88a9.79,9.79,0,0,1-6.48,2.69C1421,1375.83,1416.8,1370.79,1416.8,1362.2Zm13.71-2.11c0-5.28-1.8-8.12-4.86-8.12-2.77,0-5.21,3-5.61,8.12Z" transform="translate(-0.47 -57)"/><path d="M1438,1365.65v-16.51h3.27v16c0,4.84,1.08,6.91,3.67,6.91,2,0,3.42-1.3,5.3-4.42v-18.48h3.27v26.07h-2.73l-.26-4.08h-.1c-1.84,2.83-3.78,4.7-6.48,4.7C1439.8,1375.83,1438,1372.28,1438,1365.65Z" transform="translate(-0.47 -57)"/><path d="M1459.46,1340.93c0-1.77,1-2.83,2.27-2.83s2.26,1.06,2.26,2.83-1,2.83-2.26,2.83S1459.46,1342.56,1459.46,1340.93Zm.61,8.21h3.28v26.07h-3.28Z" transform="translate(-0.47 -57)"/><path d="M1467.77,1372.23l1.62-2.88c1.7,1.82,3.46,3.07,5.8,3.07,2.59,0,3.85-1.82,3.85-4.08,0-2.64-2.3-3.84-4.46-4.94-2.74-1.35-5.83-3.12-5.83-7.54,0-4.13,2.48-7.39,6.73-7.39a8.75,8.75,0,0,1,6.08,2.93l-1.58,2.83c-1.37-1.35-2.74-2.31-4.5-2.31-2.45,0-3.57,1.73-3.57,3.75,0,2.5,2.13,3.41,4.32,4.51,2.85,1.44,6,3,6,7.92,0,4.23-2.52,7.73-7.13,7.73A10.29,10.29,0,0,1,1467.77,1372.23Z" transform="translate(-0.47 -57)"/><path d="M1485.16,1360.09h9.22v3.36h-9.22Z" transform="translate(-0.47 -57)"/><path d="M3.31,1406.74H6l.29,3.79h.11c1.69-2.49,3.74-4.46,6.08-4.46,3,0,4.61,1.92,5.4,5,2-2.93,4.07-5,6.44-5,4,0,5.94,3.55,5.94,10.22v16.52H27v-15.94c0-4.9-1.16-7-3.64-7-1.51,0-3.09,1.3-4.93,4v18.92H15.15v-15.94c0-4.9-1.15-7-3.63-7-1.48,0-3.13,1.3-4.93,4v18.92H3.31Z" transform="translate(-0.47 -57)"/><path d="M35.17,1419.8c0-8.69,4.29-13.73,9.07-13.73s9.07,5,9.07,13.73-4.28,13.63-9.07,13.63S35.17,1428.44,35.17,1419.8Zm14.76,0c0-6-2.3-10.08-5.69-10.08s-5.65,4.08-5.65,10.08,2.27,10,5.65,10S49.93,1425.8,49.93,1419.8Z" transform="translate(-0.47 -57)"/><path d="M57.06,1419.8c0-8.45,4-13.73,8.46-13.73,2.3,0,3.78,1.15,5.51,3.07l-.18-4.51v-10h3.27v38.21H71.46l-.33-3.07h-.07c-1.55,2-3.6,3.69-5.94,3.69C60.23,1433.43,57.06,1428.49,57.06,1419.8Zm13.79,6.38V1412.5c-1.66-2-3.14-2.73-4.76-2.73-3.16,0-5.65,4-5.65,10,0,6.29,2,10,5.4,10C67.64,1429.78,69.23,1428.58,70.85,1426.18Z" transform="translate(-0.47 -57)"/><path d="M95.78,1424.74v-14.45H92.86V1407l3.06-.24.4-7.3h2.73v7.3h5.29v3.55H99.05v14.55c0,3.22.76,5,3,5a5.62,5.62,0,0,0,2.24-.67l.64,3.26a9.64,9.64,0,0,1-3.6,1C97.18,1433.43,95.78,1430,95.78,1424.74Z" transform="translate(-0.47 -57)"/><path d="M108.16,1398.53c0-1.77,1-2.83,2.27-2.83s2.27,1.06,2.27,2.83-1,2.84-2.27,2.84S108.16,1400.17,108.16,1398.53Zm.61,8.21h3.28v26.07h-3.28Z" transform="translate(-0.47 -57)"/><path d="M118.67,1406.74h2.7l.29,3.75h.11c1.87-2.45,3.88-4.42,6.55-4.42,4.1,0,6,3.55,6,10.22v16.52H131v-15.94c0-4.9-1.12-7-3.71-7-2,0-3.38,1.34-5.36,4v18.92h-3.28Z" transform="translate(-0.47 -57)"/><path d="M139.19,1419.8c0-8.69,4.43-13.73,9.43-13.73,2.56,0,4.32,1.44,5.73,3.07l-1.7,2.93c-1.15-1.39-2.34-2.35-3.92-2.35-3.53,0-6.12,4.08-6.12,10.08s2.45,10,6,10a6.2,6.2,0,0,0,4.61-2.59l1.4,2.93a8.23,8.23,0,0,1-6.3,3.31C143.19,1433.43,139.19,1428.44,139.19,1419.8Z" transform="translate(-0.47 -57)"/><path d="M158.38,1398.53c0-1.77,1-2.83,2.27-2.83s2.26,1.06,2.26,2.83-1,2.84-2.26,2.84S158.38,1400.17,158.38,1398.53Zm.61,8.21h3.28v26.07H159Z" transform="translate(-0.47 -57)"/><path d="M167.49,1419.8c0-8.45,4-13.73,8.46-13.73,2.3,0,3.77,1.15,5.5,3.07l-.18-4.51v-10h3.28v38.21h-2.67l-.32-3.07h-.07c-1.55,2-3.6,3.69-5.94,3.69C170.65,1433.43,167.49,1428.49,167.49,1419.8Zm13.78,6.38V1412.5c-1.65-2-3.13-2.73-4.75-2.73-3.17,0-5.65,4-5.65,10,0,6.29,1.94,10,5.4,10C178.07,1429.78,179.65,1428.58,181.27,1426.18Z" transform="translate(-0.47 -57)"/><path d="M191,1423.25v-16.51h3.27v16c0,4.85,1.08,6.91,3.67,6.91,2,0,3.42-1.3,5.3-4.42v-18.48h3.27v26.07h-2.73l-.26-4.08h-.1c-1.84,2.83-3.78,4.7-6.48,4.7C192.79,1433.43,191,1429.88,191,1423.25Z" transform="translate(-0.47 -57)"/><path d="M213.06,1406.74h2.7l.29,3.75h.11c1.87-2.45,3.88-4.42,6.55-4.42,4.1,0,6,3.55,6,10.22v16.52h-3.27v-15.94c0-4.9-1.12-7-3.71-7-2,0-3.38,1.34-5.36,4v18.92h-3.28Z" transform="translate(-0.47 -57)"/><path d="M235.63,1424.74v-14.45h-2.91V1407l3.06-.24.39-7.3h2.74v7.3h5.29v3.55h-5.29v14.55c0,3.22.75,5,3,5a5.53,5.53,0,0,0,2.23-.67l.65,3.26a9.64,9.64,0,0,1-3.6,1C237,1433.43,235.63,1430,235.63,1424.74Z" transform="translate(-0.47 -57)"/><path d="M262.79,1423.25v-16.51h3.28v16c0,4.85,1.08,6.91,3.67,6.91,2,0,3.42-1.3,5.29-4.42v-18.48h3.28v26.07h-2.74l-.25-4.08h-.11c-1.83,2.83-3.78,4.7-6.48,4.7C264.63,1433.43,262.79,1429.88,262.79,1423.25Z" transform="translate(-0.47 -57)"/><path d="M285.47,1424.74v-14.45h-2.91V1407l3.06-.24.39-7.3h2.74v7.3H294v3.55h-5.29v14.55c0,3.22.76,5,3,5a5.53,5.53,0,0,0,2.23-.67l.65,3.26a9.64,9.64,0,0,1-3.6,1C286.88,1433.43,285.47,1430,285.47,1424.74Z" transform="translate(-0.47 -57)"/><path d="M312.89,1427.62v-33h3.27v33.31c0,1.34.44,1.87.94,1.87a2.3,2.3,0,0,0,.68-.09l.47,3.36a4,4,0,0,1-1.91.38C313.9,1433.43,312.89,1431.32,312.89,1427.62Z" transform="translate(-0.47 -57)"/><path d="M321.92,1426c0-5.66,3.71-8.5,12-9.75,0-3.36-.83-6.57-4-6.57-2.27,0-4.32,1.39-5.87,2.78l-1.3-3c1.8-1.54,4.57-3.41,7.71-3.41,4.75,0,6.76,4.27,6.76,10.7v16h-2.7l-.29-3.12h-.1c-1.88,2.06-4.07,3.74-6.48,3.74C324.37,1433.43,321.92,1430.74,321.92,1426Zm12,.43v-7.3c-6.59,1.06-8.82,3.22-8.82,6.58,0,3,1.51,4.18,3.45,4.18S332,1428.73,334,1426.47Z" transform="translate(-0.47 -57)"/><path d="M342,1419.8c0-8.69,4.28-13.73,9.07-13.73s9.07,5,9.07,13.73-4.29,13.63-9.07,13.63S342,1428.44,342,1419.8Zm14.75,0c0-6-2.3-10.08-5.68-10.08s-5.66,4.08-5.66,10.08,2.27,10,5.66,10S356.73,1425.8,356.73,1419.8Z" transform="translate(-0.47 -57)"/><path d="M365.27,1406.74H368l.28,4.75h.11c1.37-3.31,3.35-5.42,5.55-5.42a3.25,3.25,0,0,1,2.08.58l-.61,3.84a3.57,3.57,0,0,0-1.91-.44c-1.62,0-3.63,1.54-4.93,6v16.76h-3.27Z" transform="translate(-0.47 -57)"/><path d="M377.36,1419.8c0-8.45,4.29-13.73,8.82-13.73,5,0,7.78,4.8,7.78,12.24a23.12,23.12,0,0,1-.15,2.5H380.64c.21,5.57,2.77,9.12,6.48,9.12a7.07,7.07,0,0,0,4.89-2.07l1.19,2.88a9.77,9.77,0,0,1-6.48,2.69C381.54,1433.43,377.36,1428.39,377.36,1419.8Zm13.72-2.11c0-5.28-1.8-8.12-4.86-8.12-2.77,0-5.22,3-5.62,8.12Z" transform="translate(-0.47 -57)"/><path d="M397.31,1419.8c0-8.45,4.28-13.73,8.81-13.73,5,0,7.78,4.8,7.78,12.24a23.45,23.45,0,0,1-.14,2.5H400.58c.22,5.57,2.77,9.12,6.48,9.12a7.09,7.09,0,0,0,4.9-2.07l1.18,2.88a9.74,9.74,0,0,1-6.47,2.69C401.48,1433.43,397.31,1428.39,397.31,1419.8Zm13.71-2.11c0-5.28-1.8-8.12-4.86-8.12-2.77,0-5.22,3-5.61,8.12Z" transform="translate(-0.47 -57)"/><path d="M418.91,1424.74v-14.45H416V1407l3.06-.24.4-7.3h2.73v7.3h5.29v3.55h-5.29v14.55c0,3.22.76,5,3,5a5.62,5.62,0,0,0,2.23-.67l.64,3.26a9.64,9.64,0,0,1-3.59,1C420.31,1433.43,418.91,1430,418.91,1424.74Z" transform="translate(-0.47 -57)"/><path d="M444.92,1419.8c0-8.45,4-13.73,8.45-13.73,2.31,0,3.78,1.15,5.51,3.07l-.18-4.51v-10H462v38.21h-2.67l-.32-3.07h-.07c-1.55,2-3.6,3.69-5.94,3.69C448.08,1433.43,444.92,1428.49,444.92,1419.8Zm13.78,6.38V1412.5c-1.66-2-3.13-2.73-4.75-2.73-3.17,0-5.65,4-5.65,10,0,6.29,1.94,10,5.4,10C455.5,1429.78,457.08,1428.58,458.7,1426.18Z" transform="translate(-0.47 -57)"/><path d="M467.16,1419.8c0-8.69,4.29-13.73,9.07-13.73s9.07,5,9.07,13.73-4.28,13.63-9.07,13.63S467.16,1428.44,467.16,1419.8Zm14.76,0c0-6-2.3-10.08-5.69-10.08s-5.65,4.08-5.65,10.08,2.27,10,5.65,10S481.92,1425.8,481.92,1419.8Z" transform="translate(-0.47 -57)"/><path d="M490.45,1427.62v-33h3.28v33.31c0,1.34.43,1.87.94,1.87a2.3,2.3,0,0,0,.68-.09l.47,3.36a4.05,4.05,0,0,1-1.91.38C491.46,1433.43,490.45,1431.32,490.45,1427.62Z" transform="translate(-0.47 -57)"/><path d="M499.24,1419.8c0-8.69,4.28-13.73,9.07-13.73s9.07,5,9.07,13.73-4.28,13.63-9.07,13.63S499.24,1428.44,499.24,1419.8Zm14.76,0c0-6-2.31-10.08-5.69-10.08s-5.65,4.08-5.65,10.08,2.27,10,5.65,10S514,1425.8,514,1419.8Z" transform="translate(-0.47 -57)"/><path d="M522.53,1406.74h2.7l.29,4.75h.1c1.37-3.31,3.35-5.42,5.55-5.42a3.3,3.3,0,0,1,2.09.58l-.62,3.84a3.54,3.54,0,0,0-1.9-.44c-1.62,0-3.64,1.54-4.94,6v16.76h-3.27Z" transform="translate(-0.47 -57)"/><path d="M534.63,1419.8c0-8.45,4.28-13.73,8.81-13.73,5,0,7.78,4.8,7.78,12.24a23.45,23.45,0,0,1-.14,2.5H537.9c.22,5.57,2.77,9.12,6.48,9.12a7.09,7.09,0,0,0,4.9-2.07l1.18,2.88a9.75,9.75,0,0,1-6.48,2.69C538.8,1433.43,534.63,1428.39,534.63,1419.8Zm13.71-2.11c0-5.28-1.8-8.12-4.86-8.12-2.77,0-5.22,3-5.61,8.12Z" transform="translate(-0.47 -57)"/><path d="M570.46,1406.74h2.7l.29,3.79h.11c1.69-2.49,3.74-4.46,6.08-4.46,3,0,4.61,1.92,5.4,5,2-2.93,4.07-5,6.44-5,4,0,5.94,3.55,5.94,10.22v16.52h-3.27v-15.94c0-4.9-1.16-7-3.64-7-1.51,0-3.09,1.3-4.93,4v18.92H582.3v-15.94c0-4.9-1.15-7-3.63-7-1.48,0-3.13,1.3-4.93,4v18.92h-3.28Z" transform="translate(-0.47 -57)"/><path d="M602.57,1426c0-5.66,3.71-8.5,12-9.75,0-3.36-.83-6.57-4-6.57-2.26,0-4.32,1.39-5.86,2.78l-1.3-3c1.8-1.54,4.57-3.41,7.7-3.41,4.76,0,6.77,4.27,6.77,10.7v16h-2.7l-.29-3.12h-.1c-1.88,2.06-4.07,3.74-6.48,3.74C605,1433.43,602.57,1430.74,602.57,1426Zm12,.43v-7.3c-6.59,1.06-8.82,3.22-8.82,6.58,0,3,1.51,4.18,3.45,4.18S612.69,1428.73,614.6,1426.47Z" transform="translate(-0.47 -57)"/><path d="M622.59,1437.8a7.87,7.87,0,0,1,2.91-5.9v-.2a5.14,5.14,0,0,1-1.79-4.27,6.88,6.88,0,0,1,2.19-4.85v-.19a10.44,10.44,0,0,1-2.56-7c0-5.71,3.39-9.31,7.35-9.31a6.37,6.37,0,0,1,2.73.67h6.81v3.36h-4a8.87,8.87,0,0,1,1.58,5.38c0,5.57-3.16,9.07-7.12,9.07a5.54,5.54,0,0,1-2.92-.91,4.35,4.35,0,0,0-1.26,3.12c0,1.68.79,2.83,3.42,2.83h3.82c4.53,0,6.8,1.92,6.8,6.19,0,4.85-3.81,9-9.86,9C625.9,1444.81,622.59,1442.31,622.59,1437.8Zm14.79-1.34c0-2.4-1.4-3.22-4-3.22H630a8.38,8.38,0,0,1-2.52-.43,6,6,0,0,0-2,4.41c0,2.79,2.12,4.61,5.69,4.61C634.9,1441.83,637.38,1439.19,637.38,1436.46Zm-2.55-21.08c0-3.79-1.84-6.09-4.14-6.09s-4.18,2.25-4.18,6.09,1.91,6.19,4.18,6.19S634.83,1419.17,634.83,1415.38Z" transform="translate(-0.47 -57)"/><path d="M644.37,1406.74h2.7l.29,3.75h.1c1.88-2.45,3.89-4.42,6.55-4.42,4.11,0,6,3.55,6,10.22v16.52h-3.28v-15.94c0-4.9-1.11-7-3.7-7-2,0-3.39,1.34-5.37,4v18.92h-3.27Z" transform="translate(-0.47 -57)"/><path d="M665.14,1426c0-5.66,3.71-8.5,12-9.75,0-3.36-.83-6.57-4-6.57-2.27,0-4.32,1.39-5.87,2.78l-1.29-3c1.8-1.54,4.57-3.41,7.7-3.41,4.75,0,6.77,4.27,6.77,10.7v16h-2.7l-.29-3.12h-.11c-1.87,2.06-4.06,3.74-6.48,3.74C667.59,1433.43,665.14,1430.74,665.14,1426Zm12,.43v-7.3c-6.58,1.06-8.82,3.22-8.82,6.58,0,3,1.52,4.18,3.46,4.18S675.25,1428.73,677.16,1426.47Z" transform="translate(-0.47 -57)"/><path d="M699.86,1426c0-5.66,3.71-8.5,12-9.75,0-3.36-.82-6.57-4-6.57-2.27,0-4.32,1.39-5.86,2.78l-1.3-3c1.8-1.54,4.57-3.41,7.7-3.41,4.75,0,6.77,4.27,6.77,10.7v16h-2.7l-.29-3.12h-.11c-1.87,2.06-4.06,3.74-6.48,3.74C702.31,1433.43,699.86,1430.74,699.86,1426Zm12,.43v-7.3c-6.58,1.06-8.82,3.22-8.82,6.58,0,3,1.52,4.18,3.46,4.18S710,1428.73,711.88,1426.47Z" transform="translate(-0.47 -57)"/><path d="M721.39,1427.62v-33h3.27v33.31c0,1.34.44,1.87.94,1.87a2.3,2.3,0,0,0,.68-.09l.47,3.36a4,4,0,0,1-1.91.38C722.4,1433.43,721.39,1431.32,721.39,1427.62Z" transform="translate(-0.47 -57)"/><path d="M731,1398.53c0-1.77,1-2.83,2.26-2.83s2.27,1.06,2.27,2.83-1,2.84-2.27,2.84S731,1400.17,731,1398.53Zm.61,8.21h3.27v26.07h-3.27Z" transform="translate(-0.47 -57)"/><path d="M753.93,1434.54l.18-4.76c-1.58,2.07-3.64,3.65-5.9,3.65-4.9,0-8.07-4.94-8.07-13.63,0-8.45,4-13.73,8.46-13.73,2.27,0,3.89,1.1,5.58,3.17h.11l.32-2.5h2.6v37.06h-3.28Zm0-8.36V1412.5c-1.66-2-3.13-2.73-4.75-2.73-3.17,0-5.65,4-5.65,10,0,6.29,1.94,10,5.4,10C750.73,1429.78,752.31,1428.58,753.93,1426.18Z" transform="translate(-0.47 -57)"/><path d="M763.62,1423.25v-16.51h3.27v16c0,4.85,1.08,6.91,3.67,6.91,2,0,3.42-1.3,5.29-4.42v-18.48h3.28v26.07h-2.74l-.25-4.08H776c-1.84,2.83-3.79,4.7-6.48,4.7C765.45,1433.43,763.62,1429.88,763.62,1423.25Z" transform="translate(-0.47 -57)"/><path d="M784.5,1426c0-5.66,3.7-8.5,12-9.75,0-3.36-.83-6.57-4-6.57-2.27,0-4.32,1.39-5.87,2.78l-1.3-3c1.8-1.54,4.58-3.41,7.71-3.41,4.75,0,6.76,4.27,6.76,10.7v16h-2.7l-.28-3.12h-.11c-1.87,2.06-4.07,3.74-6.48,3.74C786.94,1433.43,784.5,1430.74,784.5,1426Zm12,.43v-7.3c-6.59,1.06-8.82,3.22-8.82,6.58,0,3,1.51,4.18,3.46,4.18S794.61,1428.73,796.52,1426.47Z" transform="translate(-0.47 -57)"/><path d="M806,1406.74h2.7l.29,3.79h.11c1.69-2.49,3.74-4.46,6.08-4.46,3,0,4.61,1.92,5.4,5,2-2.93,4.07-5,6.44-5,4,0,5.94,3.55,5.94,10.22v16.52h-3.27v-15.94c0-4.9-1.15-7-3.64-7-1.51,0-3.09,1.3-4.93,4v18.92h-3.27v-15.94c0-4.9-1.16-7-3.64-7-1.48,0-3.13,1.3-4.93,4v18.92H806Z" transform="translate(-0.47 -57)"/><path d="M852.3,1419.8c0-8.45,4.28-13.73,8.82-13.73,5,0,7.77,4.8,7.77,12.24a23.45,23.45,0,0,1-.14,2.5H855.58c.21,5.57,2.77,9.12,6.47,9.12a7.09,7.09,0,0,0,4.9-2.07l1.19,2.88a9.79,9.79,0,0,1-6.48,2.69C856.48,1433.43,852.3,1428.39,852.3,1419.8Zm13.71-2.11c0-5.28-1.8-8.12-4.86-8.12-2.77,0-5.21,3-5.61,8.12Z" transform="translate(-0.47 -57)"/><path d="M873.72,1406.74h2.7l.29,4.75h.1c1.37-3.31,3.35-5.42,5.55-5.42a3.3,3.3,0,0,1,2.09.58l-.62,3.84a3.54,3.54,0,0,0-1.9-.44c-1.62,0-3.64,1.54-4.94,6v16.76h-3.27Z" transform="translate(-0.47 -57)"/><path d="M885.49,1426c0-5.66,3.71-8.5,12-9.75,0-3.36-.82-6.57-4-6.57-2.27,0-4.32,1.39-5.86,2.78l-1.3-3c1.8-1.54,4.57-3.41,7.7-3.41,4.75,0,6.77,4.27,6.77,10.7v16h-2.7l-.29-3.12h-.11c-1.87,2.06-4.06,3.74-6.48,3.74C887.94,1433.43,885.49,1430.74,885.49,1426Zm12,.43v-7.3c-6.58,1.06-8.82,3.22-8.82,6.58,0,3,1.52,4.18,3.46,4.18S895.61,1428.73,897.51,1426.47Z" transform="translate(-0.47 -57)"/><path d="M907.05,1424.74v-14.45h-2.91V1407l3.06-.24.39-7.3h2.74v7.3h5.29v3.55h-5.29v14.55c0,3.22.76,5,3,5a5.53,5.53,0,0,0,2.23-.67l.65,3.26a9.64,9.64,0,0,1-3.6,1C908.46,1433.43,907.05,1430,907.05,1424.74Z" transform="translate(-0.47 -57)"/><path d="M931.62,1406.74H935l3.67,14.83c.62,2.55,1.23,5.24,1.84,7.68h.15c.57-2.44,1.22-5.13,1.8-7.68l3.7-14.83h3.24l-6.94,26.07h-3.82Z" transform="translate(-0.47 -57)"/><path d="M951.6,1419.8c0-8.69,4.29-13.73,9.07-13.73s9.08,5,9.08,13.73-4.29,13.63-9.08,13.63S951.6,1428.44,951.6,1419.8Zm14.76,0c0-6-2.3-10.08-5.69-10.08S955,1413.8,955,1419.8s2.27,10,5.65,10S966.36,1425.8,966.36,1419.8Z" transform="translate(-0.47 -57)"/><path d="M974.9,1427.62v-33h3.27v33.31c0,1.34.43,1.87.94,1.87a2.3,2.3,0,0,0,.68-.09l.47,3.36a4.05,4.05,0,0,1-1.91.38C975.9,1433.43,974.9,1431.32,974.9,1427.62Z" transform="translate(-0.47 -57)"/><path d="M984.9,1423.25v-16.51h3.28v16c0,4.85,1.08,6.91,3.67,6.91,2,0,3.42-1.3,5.29-4.42v-18.48h3.28v26.07h-2.74l-.25-4.08h-.11c-1.83,2.83-3.78,4.7-6.48,4.7C986.74,1433.43,984.9,1429.88,984.9,1423.25Z" transform="translate(-0.47 -57)"/><path d="M1007.58,1424.74v-14.45h-2.91V1407l3.06-.24.39-7.3h2.74v7.3h5.29v3.55h-5.29v14.55c0,3.22.75,5,3,5a5.53,5.53,0,0,0,2.23-.67l.65,3.26a9.64,9.64,0,0,1-3.6,1C1009,1433.43,1007.58,1430,1007.58,1424.74Z" transform="translate(-0.47 -57)"/><path d="M1020.58,1406.74h2.7l.29,3h.1c1.77-1.92,4-3.65,6.23-3.65,5,0,7.78,5.28,7.78,13.3,0,8.92-4,14.06-8.5,14.06-1.76,0-3.63-1.1-5.4-3l.07,4.56v8.83h-3.27Zm13.68,12.67c0-5.76-1.44-9.64-5.15-9.64-1.66,0-3.35,1.24-5.26,3.6v13.68c1.77,2,3.5,2.73,4.79,2.73C1031.88,1429.78,1034.26,1425.89,1034.26,1419.41Z" transform="translate(-0.47 -57)"/><path d="M1041.1,1426c0-5.66,3.71-8.5,12-9.75,0-3.36-.83-6.57-4-6.57-2.27,0-4.32,1.39-5.87,2.78l-1.29-3c1.8-1.54,4.57-3.41,7.7-3.41,4.75,0,6.77,4.27,6.77,10.7v16h-2.7l-.29-3.12h-.11c-1.87,2.06-4.07,3.74-6.48,3.74C1043.55,1433.43,1041.1,1430.74,1041.1,1426Zm12,.43v-7.3c-6.59,1.06-8.82,3.22-8.82,6.58,0,3,1.51,4.18,3.46,4.18S1051.21,1428.73,1053.12,1426.47Z" transform="translate(-0.47 -57)"/><path d="M1062.66,1424.74v-14.45h-2.91V1407l3.06-.24.39-7.3h2.74v7.3h5.29v3.55h-5.29v14.55c0,3.22.75,5,3,5a5.58,5.58,0,0,0,2.23-.67l.65,3.26a9.69,9.69,0,0,1-3.6,1C1064.07,1433.43,1062.66,1430,1062.66,1424.74Z" transform="translate(-0.47 -57)"/><path d="M1075.23,1430.12c0-2,1.08-3.41,2.37-3.41s2.38,1.44,2.38,3.41-1.08,3.31-2.38,3.31S1075.23,1432.09,1075.23,1430.12Z" transform="translate(-0.47 -57)"/><path d="M1100.51,1418.26v-20.64h3.35v20.79c0,8.49,2.7,11.13,6.12,11.13s6.3-2.64,6.3-11.13v-20.79h3.2v20.64c0,11.33-4.1,15.17-9.5,15.17S1100.51,1429.59,1100.51,1418.26Z" transform="translate(-0.47 -57)"/><path d="M1126.87,1424.74v-14.45H1124V1407l3.06-.24.4-7.3h2.73v7.3h5.29v3.55h-5.29v14.55c0,3.22.76,5,3,5a5.62,5.62,0,0,0,2.23-.67l.64,3.26a9.64,9.64,0,0,1-3.59,1C1128.27,1433.43,1126.87,1430,1126.87,1424.74Z" transform="translate(-0.47 -57)"/><path d="M1151.94,1406.74h3.35l2.91,15.07c.4,2.5.79,4.85,1.15,7.3h.18c.43-2.45.83-4.85,1.33-7.3l3-15.07h3.2l3.06,15.07c.47,2.5.9,4.85,1.37,7.3h.14c.43-2.45.8-4.8,1.23-7.3l2.88-15.07h3.09l-5.25,26.07h-4l-2.85-14.07c-.5-2.45-.86-4.85-1.33-7.49h-.18c-.43,2.64-.83,5.09-1.33,7.59l-2.74,14h-3.85Z" transform="translate(-0.47 -57)"/><path d="M1182.54,1398.53c0-1.77,1-2.83,2.26-2.83s2.27,1.06,2.27,2.83-1,2.84-2.27,2.84S1182.54,1400.17,1182.54,1398.53Zm.61,8.21h3.27v26.07h-3.27Z" transform="translate(-0.47 -57)"/><path d="M1190.85,1429.83l1.62-2.88c1.69,1.83,3.46,3.07,5.8,3.07,2.59,0,3.85-1.82,3.85-4.08,0-2.64-2.3-3.84-4.46-4.94-2.74-1.35-5.84-3.12-5.84-7.54,0-4.13,2.49-7.39,6.74-7.39a8.75,8.75,0,0,1,6.08,2.93l-1.59,2.83c-1.36-1.34-2.73-2.3-4.49-2.3a3.41,3.41,0,0,0-3.57,3.74c0,2.5,2.13,3.41,4.32,4.51,2.84,1.44,6,3,6,7.92,0,4.23-2.52,7.73-7.13,7.73A10.24,10.24,0,0,1,1190.85,1429.83Z" transform="translate(-0.47 -57)"/><path d="M1209.28,1398.53c0-1.77,1-2.83,2.27-2.83s2.27,1.06,2.27,2.83-1,2.84-2.27,2.84S1209.28,1400.17,1209.28,1398.53Zm.62,8.21h3.27v26.07h-3.27Z" transform="translate(-0.47 -57)"/><path d="M1232.74,1419.8c0-8.45,4.28-13.73,8.82-13.73,5,0,7.77,4.8,7.77,12.24a23.45,23.45,0,0,1-.14,2.5H1236c.22,5.57,2.77,9.12,6.48,9.12a7.09,7.09,0,0,0,4.9-2.07l1.19,2.88a9.79,9.79,0,0,1-6.48,2.69C1236.91,1433.43,1232.74,1428.39,1232.74,1419.8Zm13.71-2.11c0-5.28-1.8-8.12-4.86-8.12-2.77,0-5.22,3-5.61,8.12Z" transform="translate(-0.47 -57)"/><path d="M1254.16,1406.74h2.7l.28,3.75h.11c1.87-2.45,3.89-4.42,6.55-4.42,4.11,0,6,3.55,6,10.22v16.52h-3.28v-15.94c0-4.9-1.11-7-3.71-7-2,0-3.38,1.34-5.36,4v18.92h-3.27Z" transform="translate(-0.47 -57)"/><path d="M1275.54,1398.53c0-1.77,1-2.83,2.27-2.83s2.27,1.06,2.27,2.83-1,2.84-2.27,2.84S1275.54,1400.17,1275.54,1398.53Zm.61,8.21h3.28v26.07h-3.28Z" transform="translate(-0.47 -57)"/><path d="M1286.05,1406.74h2.7l.29,3.79h.11c1.69-2.49,3.74-4.46,6.08-4.46,3,0,4.61,1.92,5.4,5,2-2.93,4.07-5,6.44-5,4,0,5.94,3.55,5.94,10.22v16.52h-3.27v-15.94c0-4.9-1.16-7-3.64-7-1.51,0-3.09,1.3-4.93,4v18.92h-3.28v-15.94c0-4.9-1.15-7-3.63-7-1.48,0-3.13,1.3-4.93,4v18.92h-3.28Z" transform="translate(-0.47 -57)"/><path d="M1332.58,1426c0-5.66,3.71-8.5,12-9.75,0-3.36-.83-6.57-4-6.57-2.27,0-4.32,1.39-5.87,2.78l-1.29-3c1.8-1.54,4.57-3.41,7.7-3.41,4.75,0,6.77,4.27,6.77,10.7v16h-2.7l-.29-3.12h-.11c-1.87,2.06-4.07,3.74-6.48,3.74C1335,1433.43,1332.58,1430.74,1332.58,1426Zm12,.43v-7.3c-6.59,1.06-8.82,3.22-8.82,6.58,0,3,1.51,4.18,3.46,4.18S1342.69,1428.73,1344.6,1426.47Z" transform="translate(-0.47 -57)"/><path d="M1352.7,1419.8c0-8.45,4-13.73,8.46-13.73,2.3,0,3.78,1.15,5.51,3.07l-.18-4.51v-10h3.27v38.21h-2.66l-.32-3.07h-.07c-1.55,2-3.6,3.69-5.94,3.69C1355.87,1433.43,1352.7,1428.49,1352.7,1419.8Zm13.79,6.38V1412.5c-1.66-2-3.13-2.73-4.75-2.73-3.17,0-5.65,4-5.65,10,0,6.29,1.94,10,5.4,10C1363.29,1429.78,1364.87,1428.58,1366.49,1426.18Z" transform="translate(-0.47 -57)"/><path d="M1390.84,1406.74h2.7l.29,3.79h.11c1.69-2.49,3.74-4.46,6.08-4.46,3,0,4.61,1.92,5.4,5,2-2.93,4.07-5,6.45-5,4,0,5.93,3.55,5.93,10.22v16.52h-3.27v-15.94c0-4.9-1.15-7-3.64-7-1.51,0-3.09,1.3-4.93,4v18.92h-3.27v-15.94c0-4.9-1.16-7-3.64-7-1.47,0-3.13,1.3-4.93,4v18.92h-3.28Z" transform="translate(-0.47 -57)"/><path d="M1423.57,1398.53c0-1.77,1-2.83,2.27-2.83s2.26,1.06,2.26,2.83-1,2.84-2.26,2.84S1423.57,1400.17,1423.57,1398.53Zm.61,8.21h3.28v26.07h-3.28Z" transform="translate(-0.47 -57)"/><path d="M1434.08,1406.74h2.7l.29,3.75h.1c1.88-2.45,3.89-4.42,6.56-4.42,4.1,0,6,3.55,6,10.22v16.52h-3.27v-15.94c0-4.9-1.12-7-3.71-7-2,0-3.39,1.34-5.37,4v18.92h-3.27Z" transform="translate(-0.47 -57)"/><path d="M1455.46,1398.53c0-1.77,1-2.83,2.27-2.83s2.27,1.06,2.27,2.83-1,2.84-2.27,2.84S1455.46,1400.17,1455.46,1398.53Zm.62,8.21h3.27v26.07h-3.27Z" transform="translate(-0.47 -57)"/><path d="M1466,1406.74h2.7l.29,3.79h.11c1.69-2.49,3.74-4.46,6.08-4.46,3,0,4.61,1.92,5.4,5,2-2.93,4.07-5,6.45-5,4,0,5.94,3.55,5.94,10.22v16.52h-3.28v-15.94c0-4.9-1.15-7-3.64-7-1.51,0-3.09,1.3-4.93,4v18.92h-3.27v-15.94c0-4.9-1.15-7-3.64-7-1.47,0-3.13,1.3-4.93,4v18.92H1466Z" transform="translate(-0.47 -57)"/><path d="M.47,1464.34H3.89l3.67,14.83c.61,2.55,1.22,5.24,1.83,7.68h.15c.57-2.44,1.22-5.13,1.8-7.68l3.71-14.83h3.24l-6.95,26.07H7.52Z" transform="translate(-0.47 -57)"/><path d="M20.45,1477.4c0-8.45,4.28-13.73,8.82-13.73,5,0,7.77,4.8,7.77,12.24a23.45,23.45,0,0,1-.14,2.5H23.72c.22,5.56,2.78,9.12,6.48,9.12a7.09,7.09,0,0,0,4.9-2.07l1.19,2.88a9.79,9.79,0,0,1-6.48,2.69C24.62,1491,20.45,1486,20.45,1477.4Zm13.71-2.11c0-5.28-1.8-8.12-4.86-8.12-2.77,0-5.22,3-5.61,8.12Z" transform="translate(-0.47 -57)"/><path d="M41.87,1464.34h2.7l.28,3.74H45c1.87-2.44,3.89-4.41,6.55-4.41,4.11,0,6,3.55,6,10.22v16.52H54.21v-15.94c0-4.9-1.11-7-3.7-7-2,0-3.39,1.34-5.37,4v18.92H41.87Z" transform="translate(-0.47 -57)"/><path d="M63.25,1456.13c0-1.77,1-2.83,2.27-2.83s2.27,1.06,2.27,2.83-1,2.83-2.27,2.83S63.25,1457.76,63.25,1456.13Zm.61,8.21h3.28v26.07H63.86Z" transform="translate(-0.47 -57)"/><path d="M72.54,1483.64c0-5.67,3.71-8.5,12-9.75,0-3.36-.83-6.57-4-6.57-2.27,0-4.32,1.39-5.87,2.78l-1.29-3c1.8-1.54,4.57-3.41,7.7-3.41,4.75,0,6.77,4.27,6.77,10.7v16h-2.7l-.29-3.12h-.11c-1.87,2.06-4.07,3.74-6.48,3.74C75,1491,72.54,1488.34,72.54,1483.64Zm12,.43v-7.3c-6.59,1.06-8.82,3.22-8.82,6.58,0,3,1.51,4.18,3.46,4.18S82.65,1486.33,84.56,1484.07Z" transform="translate(-0.47 -57)"/><path d="M94.07,1464.34h2.7l.28,3.79h.11c1.69-2.49,3.75-4.46,6.09-4.46,3,0,4.6,1.92,5.39,5,2-2.93,4.07-5,6.45-5,4,0,5.94,3.55,5.94,10.22v16.52h-3.28v-15.94c0-4.9-1.15-7-3.63-7-1.52,0-3.1,1.3-4.94,4v18.92h-3.27v-15.94c0-4.9-1.15-7-3.64-7-1.47,0-3.13,1.3-4.93,4v18.92H94.07Z" transform="translate(-0.47 -57)"/><path d="M126,1496.94a7.35,7.35,0,0,0,3.6-6.53,1.1,1.1,0,0,1-.4,0c-1.26,0-2.41-1.06-2.41-3.08s1.15-3.07,2.48-3.07c1.73,0,2.78,2,2.78,5.19,0,4.6-2,8.2-5.26,10Z" transform="translate(-0.47 -57)"/><path d="M159.17,1492.14l.18-4.76c-1.58,2.07-3.64,3.65-5.9,3.65-4.9,0-8.07-4.94-8.07-13.63,0-8.45,4-13.73,8.46-13.73,2.27,0,3.89,1.1,5.58,3.17h.11l.32-2.5h2.6v37.06h-3.28Zm0-8.36V1470.1c-1.66-2-3.13-2.73-4.75-2.73-3.17,0-5.65,4-5.65,10,0,6.29,1.94,10,5.4,10C156,1487.38,157.55,1486.18,159.17,1483.78Z" transform="translate(-0.47 -57)"/><path d="M168.86,1480.85v-16.51h3.27v16c0,4.84,1.08,6.91,3.67,6.91,2,0,3.42-1.3,5.29-4.42v-18.48h3.28v26.07h-2.74l-.25-4.08h-.1c-1.84,2.83-3.78,4.7-6.48,4.7C170.69,1491,168.86,1487.48,168.86,1480.85Z" transform="translate(-0.47 -57)"/><path d="M190.35,1456.13c0-1.77,1-2.83,2.27-2.83s2.26,1.06,2.26,2.83-1,2.83-2.26,2.83S190.35,1457.76,190.35,1456.13Zm.61,8.21h3.28v26.07H191Z" transform="translate(-0.47 -57)"/><path d="M198.66,1487.43l1.62-2.88c1.7,1.83,3.46,3.07,5.8,3.07,2.59,0,3.85-1.82,3.85-4.08,0-2.64-2.3-3.84-4.46-4.94-2.74-1.35-5.83-3.12-5.83-7.54,0-4.13,2.48-7.39,6.73-7.39a8.75,8.75,0,0,1,6.08,2.93l-1.58,2.83c-1.37-1.35-2.74-2.31-4.5-2.31-2.45,0-3.57,1.73-3.57,3.75,0,2.5,2.13,3.41,4.32,4.51,2.85,1.44,6,3,6,7.92,0,4.23-2.52,7.73-7.13,7.73A10.26,10.26,0,0,1,198.66,1487.43Z" transform="translate(-0.47 -57)"/><path d="M227.08,1464.34h2.7l.29,3.74h.11c1.87-2.44,3.89-4.41,6.55-4.41,4.1,0,6,3.55,6,10.22v16.52h-3.28v-15.94c0-4.9-1.12-7-3.71-7-2,0-3.38,1.34-5.36,4v18.92h-3.28Z" transform="translate(-0.47 -57)"/><path d="M247.6,1477.4c0-8.69,4.29-13.73,9.07-13.73s9.08,5,9.08,13.73-4.29,13.63-9.08,13.63S247.6,1486,247.6,1477.4Zm14.76,0c0-6-2.3-10.08-5.69-10.08S251,1471.4,251,1477.4s2.27,10,5.65,10S262.36,1483.4,262.36,1477.4Z" transform="translate(-0.47 -57)"/><path d="M268.7,1487.43l1.62-2.88c1.69,1.83,3.45,3.07,5.79,3.07,2.6,0,3.86-1.82,3.86-4.08,0-2.64-2.31-3.84-4.47-4.94-2.73-1.35-5.83-3.12-5.83-7.54,0-4.13,2.48-7.39,6.73-7.39a8.77,8.77,0,0,1,6.09,2.93l-1.59,2.83c-1.37-1.35-2.73-2.31-4.5-2.31-2.45,0-3.56,1.73-3.56,3.75,0,2.5,2.12,3.41,4.32,4.51,2.84,1.44,6,3,6,7.92,0,4.23-2.52,7.73-7.12,7.73A10.22,10.22,0,0,1,268.7,1487.43Z" transform="translate(-0.47 -57)"/><path d="M287.53,1482.34v-14.45h-2.92v-3.31l3.06-.24.4-7.3h2.73v7.3h5.29v3.55H290.8v14.55c0,3.22.76,5,3,5a5.62,5.62,0,0,0,2.23-.67l.65,3.26a9.74,9.74,0,0,1-3.6,1C288.93,1491,287.53,1487.58,287.53,1482.34Z" transform="translate(-0.47 -57)"/><path d="M300.52,1464.34h2.7l.29,4.75h.11c1.37-3.31,3.35-5.42,5.54-5.42a3.26,3.26,0,0,1,2.09.58l-.61,3.83a3.69,3.69,0,0,0-1.91-.43c-1.62,0-3.64,1.54-4.93,6v16.76h-3.28Z" transform="translate(-0.47 -57)"/><path d="M314.24,1480.85v-16.51h3.27v16c0,4.84,1.08,6.91,3.68,6.91,2,0,3.42-1.3,5.29-4.42v-18.48h3.27v26.07H327l-.26-4.08h-.1c-1.84,2.83-3.78,4.7-6.48,4.7C316.07,1491,314.24,1487.48,314.24,1480.85Z" transform="translate(-0.47 -57)"/><path d="M334.94,1477.4c0-8.45,4-13.73,8.46-13.73,2.3,0,3.78,1.15,5.5,3.07l-.18-4.51v-10H352v38.21h-2.66l-.33-3.08h-.07c-1.55,2-3.6,3.7-5.94,3.7C338.11,1491,334.94,1486.09,334.94,1477.4Zm13.78,6.38V1470.1c-1.65-2-3.13-2.73-4.75-2.73-3.16,0-5.65,4-5.65,10,0,6.29,1.95,10,5.4,10C345.52,1487.38,347.1,1486.18,348.72,1483.78Z" transform="translate(-0.47 -57)"/><path d="M366.56,1477.4c0-8.45,4.29-13.73,8.82-13.73,5,0,7.78,4.8,7.78,12.24a20.81,20.81,0,0,1-.15,2.5H369.84c.22,5.56,2.77,9.12,6.48,9.12a7.07,7.07,0,0,0,4.89-2.07l1.19,2.88a9.77,9.77,0,0,1-6.48,2.69C370.74,1491,366.56,1486,366.56,1477.4Zm13.72-2.11c0-5.28-1.8-8.12-4.86-8.12-2.77,0-5.22,3-5.62,8.12Z" transform="translate(-0.47 -57)"/><path d="M391.37,1476.82l-5.94-12.48H389l2.62,5.76c.61,1.44,1.3,2.88,1.95,4.32h.14c.61-1.44,1.19-2.88,1.76-4.32l2.42-5.76h3.42l-5.94,12.91,6.44,13.16h-3.6l-2.88-6.1c-.65-1.58-1.37-3.17-2.09-4.66H393c-.68,1.49-1.33,3.08-2,4.66l-2.63,6.1h-3.46Z" transform="translate(-0.47 -57)"/><path d="M403.46,1477.4c0-8.45,4.29-13.73,8.82-13.73,5,0,7.78,4.8,7.78,12.24a20.81,20.81,0,0,1-.15,2.5H406.74c.22,5.56,2.77,9.12,6.48,9.12a7.07,7.07,0,0,0,4.89-2.07l1.19,2.88a9.77,9.77,0,0,1-6.48,2.69C407.64,1491,403.46,1486,403.46,1477.4Zm13.72-2.11c0-5.28-1.8-8.12-4.86-8.12-2.77,0-5.22,3-5.62,8.12Z" transform="translate(-0.47 -57)"/><path d="M424.88,1464.34h2.7l.29,4.75H428c1.37-3.31,3.35-5.42,5.54-5.42a3.26,3.26,0,0,1,2.09.58l-.61,3.83a3.69,3.69,0,0,0-1.91-.43c-1.62,0-3.64,1.54-4.93,6v16.76h-3.28Z" transform="translate(-0.47 -57)"/><path d="M437,1477.4c0-8.69,4.43-13.73,9.43-13.73,2.56,0,4.32,1.44,5.72,3.07l-1.69,2.93c-1.15-1.39-2.34-2.35-3.92-2.35-3.53,0-6.12,4.08-6.12,10.08s2.45,10,6.05,10a6.16,6.16,0,0,0,4.6-2.59l1.41,2.93a8.23,8.23,0,0,1-6.3,3.31C441,1491,437,1486,437,1477.4Z" transform="translate(-0.47 -57)"/><path d="M456.17,1456.13c0-1.77,1-2.83,2.26-2.83s2.27,1.06,2.27,2.83-1,2.83-2.27,2.83S456.17,1457.76,456.17,1456.13Zm.61,8.21h3.27v26.07h-3.27Z" transform="translate(-0.47 -57)"/><path d="M476.63,1482.34v-14.45h-2.92v-3.31l3.06-.24.4-7.3h2.74v7.3h5.29v3.55h-5.29v14.55c0,3.22.75,5,3,5a5.62,5.62,0,0,0,2.23-.67l.65,3.26a9.69,9.69,0,0,1-3.6,1C478,1491,476.63,1487.58,476.63,1482.34Z" transform="translate(-0.47 -57)"/><path d="M487.54,1483.64c0-5.67,3.71-8.5,12-9.75,0-3.36-.83-6.57-4-6.57-2.27,0-4.32,1.39-5.87,2.78l-1.29-3c1.8-1.54,4.57-3.41,7.7-3.41,4.75,0,6.77,4.27,6.77,10.7v16h-2.7l-.29-3.12h-.11c-1.87,2.06-4.07,3.74-6.48,3.74C490,1491,487.54,1488.34,487.54,1483.64Zm12,.43v-7.3c-6.59,1.06-8.82,3.22-8.82,6.58,0,3,1.51,4.18,3.46,4.18S497.65,1486.33,499.56,1484.07Z" transform="translate(-0.47 -57)"/><path d="M509.1,1482.34v-14.45h-2.91v-3.31l3.06-.24.39-7.3h2.74v7.3h5.29v3.55h-5.29v14.55c0,3.22.75,5,3,5a5.53,5.53,0,0,0,2.23-.67l.65,3.26a9.64,9.64,0,0,1-3.6,1C510.51,1491,509.1,1487.58,509.1,1482.34Z" transform="translate(-0.47 -57)"/><path d="M521.49,1456.13c0-1.77,1-2.83,2.26-2.83s2.27,1.06,2.27,2.83-1,2.83-2.27,2.83S521.49,1457.76,521.49,1456.13Zm.61,8.21h3.27v26.07H522.1Z" transform="translate(-0.47 -57)"/><path d="M530.52,1477.4c0-8.69,4.29-13.73,9.07-13.73s9.07,5,9.07,13.73-4.28,13.63-9.07,13.63S530.52,1486,530.52,1477.4Zm14.76,0c0-6-2.3-10.08-5.69-10.08s-5.65,4.08-5.65,10.08,2.27,10,5.65,10S545.28,1483.4,545.28,1477.4Z" transform="translate(-0.47 -57)"/><path d="M553.81,1464.34h2.7l.29,3.74h.11c1.87-2.44,3.89-4.41,6.55-4.41,4.1,0,6,3.55,6,10.22v16.52h-3.28v-15.94c0-4.9-1.12-7-3.71-7-2,0-3.38,1.34-5.36,4v18.92h-3.28Z" transform="translate(-0.47 -57)"/><path d="M584.93,1480.85v-16.51h3.28v16c0,4.84,1.08,6.91,3.67,6.91,2,0,3.42-1.3,5.29-4.42v-18.48h3.28v26.07h-2.74l-.25-4.08h-.11c-1.83,2.83-3.78,4.7-6.48,4.7C586.77,1491,584.93,1487.48,584.93,1480.85Z" transform="translate(-0.47 -57)"/><path d="M607,1485.22v-33h3.27v33.31c0,1.34.44,1.87.94,1.87a2.3,2.3,0,0,0,.68-.09l.47,3.36a4,4,0,0,1-1.91.38C608,1491,607,1488.92,607,1485.22Z" transform="translate(-0.47 -57)"/><path d="M617.3,1485.22v-33h3.27v33.31c0,1.34.43,1.87.94,1.87a2.3,2.3,0,0,0,.68-.09l.47,3.36a4,4,0,0,1-1.91.38C618.3,1491,617.3,1488.92,617.3,1485.22Z" transform="translate(-0.47 -57)"/><path d="M626.33,1483.64c0-5.67,3.71-8.5,12-9.75,0-3.36-.83-6.57-4-6.57-2.26,0-4.32,1.39-5.86,2.78l-1.3-3c1.8-1.54,4.57-3.41,7.7-3.41,4.76,0,6.77,4.27,6.77,10.7v16h-2.7l-.29-3.12h-.1c-1.88,2.06-4.07,3.74-6.48,3.74C628.78,1491,626.33,1488.34,626.33,1483.64Zm12,.43v-7.3c-6.59,1.06-8.82,3.22-8.82,6.58,0,3,1.51,4.18,3.45,4.18S636.45,1486.33,638.36,1484.07Z" transform="translate(-0.47 -57)"/><path d="M647.86,1464.34h2.7l.29,3.79H651c1.69-2.49,3.74-4.46,6.08-4.46,3,0,4.61,1.92,5.4,5,2-2.93,4.07-5,6.44-5,4,0,5.94,3.55,5.94,10.22v16.52h-3.27v-15.94c0-4.9-1.16-7-3.64-7-1.51,0-3.1,1.3-4.93,4v18.92H659.7v-15.94c0-4.9-1.15-7-3.63-7-1.48,0-3.13,1.3-4.93,4v18.92h-3.28Z" transform="translate(-0.47 -57)"/><path d="M679.72,1477.4c0-8.69,4.43-13.73,9.43-13.73,2.56,0,4.32,1.44,5.73,3.07l-1.7,2.93c-1.15-1.39-2.34-2.35-3.92-2.35-3.53,0-6.12,4.08-6.12,10.08s2.45,10,6.05,10a6.16,6.16,0,0,0,4.6-2.59l1.41,2.93a8.23,8.23,0,0,1-6.3,3.31C683.72,1491,679.72,1486,679.72,1477.4Z" transform="translate(-0.47 -57)"/><path d="M697.18,1477.4c0-8.69,4.28-13.73,9.07-13.73s9.07,5,9.07,13.73S711,1491,706.25,1491,697.18,1486,697.18,1477.4Zm14.76,0c0-6-2.31-10.08-5.69-10.08s-5.65,4.08-5.65,10.08,2.27,10,5.65,10S711.94,1483.4,711.94,1477.4Z" transform="translate(-0.47 -57)"/><path d="M720.47,1464.34h2.7l.29,4.75h.11c1.37-3.31,3.35-5.42,5.54-5.42a3.28,3.28,0,0,1,2.09.58l-.61,3.83a3.69,3.69,0,0,0-1.91-.43c-1.62,0-3.64,1.54-4.93,6v16.76h-3.28Z" transform="translate(-0.47 -57)"/><path d="M734.44,1464.34h2.7l.29,3h.11c1.76-1.92,4-3.65,6.22-3.65,5,0,7.78,5.28,7.78,13.3,0,8.92-4,14.06-8.5,14.06-1.76,0-3.63-1.1-5.4-3l.07,4.56v8.83h-3.27ZM748.12,1477c0-5.76-1.44-9.64-5.15-9.64-1.66,0-3.35,1.24-5.26,3.6v13.68c1.77,2,3.5,2.73,4.79,2.73C745.74,1487.38,748.12,1483.49,748.12,1477Z" transform="translate(-0.47 -57)"/><path d="M755.28,1477.4c0-8.45,4.29-13.73,8.82-13.73,5,0,7.78,4.8,7.78,12.24a20.81,20.81,0,0,1-.15,2.5H758.56c.22,5.56,2.77,9.12,6.48,9.12a7.07,7.07,0,0,0,4.89-2.07l1.19,2.88a9.77,9.77,0,0,1-6.48,2.69C759.46,1491,755.28,1486,755.28,1477.4Zm13.72-2.11c0-5.28-1.8-8.12-4.86-8.12-2.77,0-5.22,3-5.62,8.12Z" transform="translate(-0.47 -57)"/><path d="M776.7,1464.34h2.7l.29,4.75h.11c1.37-3.31,3.35-5.42,5.54-5.42a3.26,3.26,0,0,1,2.09.58l-.61,3.83a3.69,3.69,0,0,0-1.91-.43c-1.62,0-3.64,1.54-4.93,6v16.76H776.7Z" transform="translate(-0.47 -57)"/><path d="M797.85,1487.43l1.62-2.88c1.69,1.83,3.46,3.07,5.8,3.07,2.59,0,3.85-1.82,3.85-4.08,0-2.64-2.3-3.84-4.46-4.94-2.74-1.35-5.84-3.12-5.84-7.54,0-4.13,2.49-7.39,6.74-7.39a8.75,8.75,0,0,1,6.08,2.93l-1.59,2.83c-1.36-1.35-2.73-2.31-4.49-2.31-2.45,0-3.57,1.73-3.57,3.75,0,2.5,2.13,3.41,4.32,4.51,2.84,1.44,6,3,6,7.92,0,4.23-2.52,7.73-7.13,7.73A10.24,10.24,0,0,1,797.85,1487.43Z" transform="translate(-0.47 -57)"/><path d="M816.64,1480.85v-16.51h3.28v16c0,4.84,1.08,6.91,3.67,6.91,2,0,3.42-1.3,5.29-4.42v-18.48h3.28v26.07h-2.74l-.25-4.08h-.11c-1.83,2.83-3.78,4.7-6.48,4.7C818.48,1491,816.64,1487.48,816.64,1480.85Z" transform="translate(-0.47 -57)"/><path d="M836.55,1487.43l1.62-2.88c1.69,1.83,3.46,3.07,5.8,3.07,2.59,0,3.85-1.82,3.85-4.08,0-2.64-2.31-3.84-4.47-4.94-2.73-1.35-5.83-3.12-5.83-7.54,0-4.13,2.49-7.39,6.73-7.39a8.75,8.75,0,0,1,6.09,2.93l-1.59,2.83c-1.36-1.35-2.73-2.31-4.5-2.31-2.44,0-3.56,1.73-3.56,3.75,0,2.5,2.12,3.41,4.32,4.51,2.84,1.44,6,3,6,7.92,0,4.23-2.52,7.73-7.13,7.73A10.24,10.24,0,0,1,836.55,1487.43Z" transform="translate(-0.47 -57)"/><path d="M854.12,1477.4c0-8.69,4.43-13.73,9.43-13.73,2.56,0,4.32,1.44,5.72,3.07l-1.69,2.93c-1.15-1.39-2.34-2.35-3.92-2.35-3.53,0-6.12,4.08-6.12,10.08s2.45,10,6.05,10a6.16,6.16,0,0,0,4.6-2.59l1.41,2.93a8.23,8.23,0,0,1-6.3,3.31C858.11,1491,854.12,1486,854.12,1477.4Z" transform="translate(-0.47 -57)"/><path d="M873.31,1456.13c0-1.77,1-2.83,2.26-2.83s2.27,1.06,2.27,2.83-1,2.83-2.27,2.83S873.31,1457.76,873.31,1456.13Zm.61,8.21h3.27v26.07h-3.27Z" transform="translate(-0.47 -57)"/><path d="M883.82,1464.34h2.7l.28,3h.11c1.77-1.92,4-3.65,6.23-3.65,5,0,7.78,5.28,7.78,13.3,0,8.92-4,14.06-8.5,14.06-1.76,0-3.63-1.1-5.4-3l.07,4.56v8.83h-3.27ZM897.5,1477c0-5.76-1.44-9.64-5.15-9.64-1.66,0-3.35,1.24-5.26,3.6v13.68c1.77,2,3.49,2.73,4.79,2.73C895.12,1487.38,897.5,1483.49,897.5,1477Z" transform="translate(-0.47 -57)"/><path d="M905.53,1456.13c0-1.77,1-2.83,2.26-2.83s2.27,1.06,2.27,2.83-1,2.83-2.27,2.83S905.53,1457.76,905.53,1456.13Zm.61,8.21h3.27v26.07h-3.27Z" transform="translate(-0.47 -57)"/><path d="M916.61,1482.34v-14.45H913.7v-3.31l3.06-.24.39-7.3h2.74v7.3h5.29v3.55h-5.29v14.55c0,3.22.75,5,3,5a5.53,5.53,0,0,0,2.23-.67l.65,3.26a9.64,9.64,0,0,1-3.6,1C918,1491,916.61,1487.58,916.61,1482.34Z" transform="translate(-0.47 -57)"/><path d="M939,1485.22v-33h3.27v33.31c0,1.34.43,1.87.94,1.87a2.3,2.3,0,0,0,.68-.09l.47,3.36a4.05,4.05,0,0,1-1.91.38C940,1491,939,1488.92,939,1485.22Z" transform="translate(-0.47 -57)"/><path d="M947.77,1477.4c0-8.69,4.28-13.73,9.07-13.73s9.07,5,9.07,13.73-4.28,13.63-9.07,13.63S947.77,1486,947.77,1477.4Zm14.76,0c0-6-2.31-10.08-5.69-10.08s-5.65,4.08-5.65,10.08,2.27,10,5.65,10S962.53,1483.4,962.53,1477.4Z" transform="translate(-0.47 -57)"/><path d="M974.08,1487.72H974l-.29,2.69h-2.63V1452.2h3.28v10.46l-.11,4.71c1.76-2.07,4-3.7,6.12-3.7,5.07,0,7.81,5.28,7.81,13.25,0,9-4,14.11-8.5,14.11C977.86,1491,975.81,1489.83,974.08,1487.72ZM984.74,1477c0-5.76-1.44-9.64-5.15-9.64-1.65,0-3.38,1.24-5.25,3.6v13.68c1.72,2,3.49,2.73,4.78,2.73C982.36,1487.38,984.74,1483.49,984.74,1477Z" transform="translate(-0.47 -57)"/><path d="M991.83,1477.4c0-8.69,4.29-13.73,9.07-13.73s9.07,5,9.07,13.73-4.28,13.63-9.07,13.63S991.83,1486,991.83,1477.4Zm14.76,0c0-6-2.3-10.08-5.69-10.08s-5.65,4.08-5.65,10.08,2.27,10,5.65,10S1006.59,1483.4,1006.59,1477.4Z" transform="translate(-0.47 -57)"/><path d="M1015.12,1464.34h2.7l.29,4.75h.11c1.37-3.31,3.35-5.42,5.54-5.42a3.26,3.26,0,0,1,2.09.58l-.61,3.83a3.69,3.69,0,0,0-1.91-.43c-1.62,0-3.63,1.54-4.93,6v16.76h-3.28Z" transform="translate(-0.47 -57)"/><path d="M1029.67,1482.34v-14.45h-2.92v-3.31l3.06-.24.4-7.3h2.73v7.3h5.29v3.55h-5.29v14.55c0,3.22.76,5,3,5a5.62,5.62,0,0,0,2.23-.67l.65,3.26a9.74,9.74,0,0,1-3.6,1C1031.07,1491,1029.67,1487.58,1029.67,1482.34Z" transform="translate(-0.47 -57)"/><path d="M1042.05,1456.13c0-1.77,1-2.83,2.27-2.83s2.27,1.06,2.27,2.83-1,2.83-2.27,2.83S1042.05,1457.76,1042.05,1456.13Zm.61,8.21h3.28v26.07h-3.28Z" transform="translate(-0.47 -57)"/><path d="M1050.37,1487.43l1.62-2.88c1.69,1.83,3.45,3.07,5.79,3.07,2.6,0,3.85-1.82,3.85-4.08,0-2.64-2.3-3.84-4.46-4.94-2.73-1.35-5.83-3.12-5.83-7.54,0-4.13,2.48-7.39,6.73-7.39a8.73,8.73,0,0,1,6.08,2.93l-1.58,2.83c-1.37-1.35-2.74-2.31-4.5-2.31-2.45,0-3.56,1.73-3.56,3.75,0,2.5,2.12,3.41,4.32,4.51,2.84,1.44,6,3,6,7.92,0,4.23-2.52,7.73-7.13,7.73A10.22,10.22,0,0,1,1050.37,1487.43Z" transform="translate(-0.47 -57)"/><path d="M1078.79,1464.34h2.7l.29,3.74h.1c1.88-2.44,3.89-4.41,6.56-4.41,4.1,0,6,3.55,6,10.22v16.52h-3.27v-15.94c0-4.9-1.12-7-3.71-7-2,0-3.39,1.34-5.37,4v18.92h-3.27Z" transform="translate(-0.47 -57)"/><path d="M1100.17,1456.13c0-1.77,1-2.83,2.27-2.83s2.27,1.06,2.27,2.83-1,2.83-2.27,2.83S1100.17,1457.76,1100.17,1456.13Zm.62,8.21h3.27v26.07h-3.27Z" transform="translate(-0.47 -57)"/><path d="M1108.49,1487.43l1.62-2.88c1.69,1.83,3.45,3.07,5.79,3.07,2.6,0,3.86-1.82,3.86-4.08,0-2.64-2.31-3.84-4.47-4.94-2.73-1.35-5.83-3.12-5.83-7.54,0-4.13,2.48-7.39,6.73-7.39a8.77,8.77,0,0,1,6.09,2.93l-1.59,2.83c-1.37-1.35-2.73-2.31-4.5-2.31-2.45,0-3.56,1.73-3.56,3.75,0,2.5,2.12,3.41,4.32,4.51,2.84,1.44,6,3,6,7.92,0,4.23-2.52,7.73-7.12,7.73A10.22,10.22,0,0,1,1108.49,1487.43Z" transform="translate(-0.47 -57)"/><path d="M1127.53,1485.22v-33h3.28v33.31c0,1.34.43,1.87.93,1.87a2.36,2.36,0,0,0,.69-.09l.47,3.36a4.05,4.05,0,0,1-1.91.38C1128.54,1491,1127.53,1488.92,1127.53,1485.22Z" transform="translate(-0.47 -57)"/><path d="M1146.92,1480.85v-16.51h3.27v16c0,4.84,1.08,6.91,3.67,6.91,2,0,3.42-1.3,5.29-4.42v-18.48h3.28v26.07h-2.74l-.25-4.08h-.11c-1.83,2.83-3.78,4.7-6.47,4.7C1148.75,1491,1146.92,1487.48,1146.92,1480.85Z" transform="translate(-0.47 -57)"/><path d="M1169.6,1482.34v-14.45h-2.92v-3.31l3.06-.24.4-7.3h2.73v7.3h5.29v3.55h-5.29v14.55c0,3.22.76,5,3,5a5.62,5.62,0,0,0,2.24-.67l.64,3.26a9.64,9.64,0,0,1-3.6,1C1171,1491,1169.6,1487.58,1169.6,1482.34Z" transform="translate(-0.47 -57)"/><path d="M1190.75,1483.64c0-5.67,3.7-8.5,12-9.75,0-3.36-.83-6.57-4-6.57-2.27,0-4.32,1.39-5.87,2.78l-1.3-3c1.8-1.54,4.58-3.41,7.71-3.41,4.75,0,6.76,4.27,6.76,10.7v16h-2.7l-.28-3.12H1203c-1.87,2.06-4.07,3.74-6.48,3.74C1193.19,1491,1190.75,1488.34,1190.75,1483.64Zm12,.43v-7.3c-6.59,1.06-8.82,3.22-8.82,6.58,0,3,1.51,4.18,3.46,4.18S1200.86,1486.33,1202.77,1484.07Z" transform="translate(-0.47 -57)"/><path d="M1212.27,1485.22v-33h3.28v33.31c0,1.34.43,1.87.94,1.87a2.3,2.3,0,0,0,.68-.09l.47,3.36a4.05,4.05,0,0,1-1.91.38C1213.28,1491,1212.27,1488.92,1212.27,1485.22Z" transform="translate(-0.47 -57)"/><path d="M1221.92,1456.13c0-1.77,1-2.83,2.27-2.83s2.27,1.06,2.27,2.83-1,2.83-2.27,2.83S1221.92,1457.76,1221.92,1456.13Zm.61,8.21h3.28v26.07h-3.28Z" transform="translate(-0.47 -57)"/><path d="M1244.82,1492.14l.18-4.76c-1.59,2.07-3.64,3.65-5.91,3.65-4.89,0-8.06-4.94-8.06-13.63,0-8.45,4-13.73,8.46-13.73,2.27,0,3.89,1.1,5.58,3.17h.1l.33-2.5h2.59v37.06h-3.27Zm0-8.36V1470.1c-1.66-2-3.14-2.73-4.76-2.73-3.16,0-5.65,4-5.65,10,0,6.29,1.95,10,5.4,10C1241.61,1487.38,1243.2,1486.18,1244.82,1483.78Z" transform="translate(-0.47 -57)"/><path d="M1254.5,1480.85v-16.51h3.28v16c0,4.84,1.08,6.91,3.67,6.91,2,0,3.42-1.3,5.29-4.42v-18.48H1270v26.07h-2.73l-.25-4.08h-.11c-1.84,2.83-3.78,4.7-6.48,4.7C1256.34,1491,1254.5,1487.48,1254.5,1480.85Z" transform="translate(-0.47 -57)"/><path d="M1276,1456.13c0-1.77,1-2.83,2.27-2.83s2.27,1.06,2.27,2.83-1,2.83-2.27,2.83S1276,1457.76,1276,1456.13Zm.61,8.21h3.28v26.07h-3.28Z" transform="translate(-0.47 -57)"/><path d="M1286.5,1464.34h2.7l.29,3h.11c1.76-1.92,4-3.65,6.23-3.65,5,0,7.77,5.28,7.77,13.3,0,8.92-4,14.06-8.49,14.06-1.77,0-3.64-1.1-5.4-3l.07,4.56v8.83h-3.28Zm13.68,12.67c0-5.76-1.44-9.64-5.14-9.64-1.66,0-3.35,1.24-5.26,3.6v13.68c1.76,2,3.49,2.73,4.79,2.73C1297.81,1487.38,1300.18,1483.49,1300.18,1477Z" transform="translate(-0.47 -57)"/><path d="M1316.72,1477.4c0-8.45,4.29-13.73,8.82-13.73,5,0,7.78,4.8,7.78,12.24a20.81,20.81,0,0,1-.15,2.5H1320c.22,5.56,2.77,9.12,6.48,9.12a7.11,7.11,0,0,0,4.9-2.07l1.18,2.88a9.77,9.77,0,0,1-6.48,2.69C1320.9,1491,1316.72,1486,1316.72,1477.4Zm13.72-2.11c0-5.28-1.8-8.12-4.86-8.12-2.77,0-5.22,3-5.62,8.12Z" transform="translate(-0.47 -57)"/><path d="M1341.53,1476.82l-5.94-12.48h3.53l2.62,5.76c.61,1.44,1.3,2.88,2,4.32h.14c.61-1.44,1.19-2.88,1.76-4.32l2.42-5.76h3.42l-5.94,12.91,6.44,13.16h-3.6l-2.88-6.1c-.65-1.58-1.37-3.17-2.09-4.66h-.18c-.68,1.49-1.33,3.08-2,4.66l-2.63,6.1h-3.46Z" transform="translate(-0.47 -57)"/><path d="M1363.69,1477.4c0-8.45,4.28-13.73,8.81-13.73,5,0,7.78,4.8,7.78,12.24a23.45,23.45,0,0,1-.14,2.5H1367c.22,5.56,2.77,9.12,6.48,9.12a7.09,7.09,0,0,0,4.9-2.07l1.18,2.88A9.75,9.75,0,0,1,1373,1491C1367.86,1491,1363.69,1486,1363.69,1477.4Zm13.71-2.11c0-5.28-1.8-8.12-4.86-8.12-2.77,0-5.22,3-5.62,8.12Z" transform="translate(-0.47 -57)"/><path d="M1383.3,1483.64c0-5.67,3.71-8.5,12-9.75,0-3.36-.83-6.57-4-6.57-2.27,0-4.32,1.39-5.87,2.78l-1.3-3c1.8-1.54,4.57-3.41,7.71-3.41,4.75,0,6.76,4.27,6.76,10.7v16h-2.7l-.28-3.12h-.11c-1.88,2.06-4.07,3.74-6.48,3.74C1385.75,1491,1383.3,1488.34,1383.3,1483.64Zm12,.43v-7.3c-6.59,1.06-8.82,3.22-8.82,6.58,0,3,1.51,4.18,3.45,4.18S1393.42,1486.33,1395.33,1484.07Z" transform="translate(-0.47 -57)"/><path d="M1412.73,1477.4c0-8.69,4.43-13.73,9.43-13.73,2.56,0,4.32,1.44,5.73,3.07l-1.7,2.93c-1.15-1.39-2.34-2.35-3.92-2.35-3.53,0-6.12,4.08-6.12,10.08s2.45,10,6,10a6.2,6.2,0,0,0,4.61-2.59l1.4,2.93a8.23,8.23,0,0,1-6.3,3.31C1416.73,1491,1412.73,1486,1412.73,1477.4Z" transform="translate(-0.47 -57)"/><path d="M1430.19,1477.4c0-8.69,4.29-13.73,9.07-13.73s9.07,5,9.07,13.73-4.28,13.63-9.07,13.63S1430.19,1486,1430.19,1477.4Zm14.76,0c0-6-2.3-10.08-5.69-10.08s-5.65,4.08-5.65,10.08,2.27,10,5.65,10S1445,1483.4,1445,1477.4Z" transform="translate(-0.47 -57)"/><path d="M1453.48,1464.34h2.7l.29,3.79h.11c1.69-2.49,3.74-4.46,6.08-4.46,3,0,4.61,1.92,5.4,5,2-2.93,4.07-5,6.44-5,4,0,5.94,3.55,5.94,10.22v16.52h-3.27v-15.94c0-4.9-1.15-7-3.64-7-1.51,0-3.09,1.3-4.93,4v18.92h-3.27v-15.94c0-4.9-1.16-7-3.64-7-1.48,0-3.13,1.3-4.93,4v18.92h-3.28Z" transform="translate(-0.47 -57)"/><path d="M1485.16,1475.29h9.22v3.36h-9.22Z" transform="translate(-0.47 -57)"/><path d="M3.31,1521.94H6l.29,3.79h.11c1.69-2.49,3.74-4.46,6.08-4.46,3,0,4.61,1.92,5.4,5,2-2.93,4.07-5,6.44-5,4,0,5.94,3.55,5.94,10.22V1548H27v-15.94c0-4.9-1.16-7-3.64-7-1.51,0-3.09,1.3-4.93,4V1548H15.15v-15.94c0-4.9-1.15-7-3.63-7-1.48,0-3.13,1.3-4.93,4V1548H3.31Z" transform="translate(-0.47 -57)"/><path d="M35.17,1535c0-8.69,4.29-13.73,9.07-13.73s9.07,5,9.07,13.73-4.28,13.63-9.07,13.63S35.17,1543.64,35.17,1535Zm14.76,0c0-6-2.3-10.08-5.69-10.08S38.59,1529,38.59,1535s2.27,10,5.65,10S49.93,1541,49.93,1535Z" transform="translate(-0.47 -57)"/><path d="M57.06,1535c0-8.45,4-13.73,8.46-13.73,2.3,0,3.78,1.15,5.51,3.07l-.18-4.51v-10h3.27V1548H71.46l-.33-3.07h-.07c-1.55,2-3.6,3.69-5.94,3.69C60.23,1548.63,57.06,1543.69,57.06,1535Zm13.79,6.38V1527.7c-1.66-2-3.14-2.73-4.76-2.73-3.16,0-5.65,4-5.65,10,0,6.29,2,10,5.4,10C67.64,1545,69.23,1543.78,70.85,1541.38Z" transform="translate(-0.47 -57)"/><path d="M79.31,1535c0-8.69,4.28-13.73,9.07-13.73s9.07,5,9.07,13.73-4.28,13.63-9.07,13.63S79.31,1543.64,79.31,1535Zm14.75,0c0-6-2.3-10.08-5.68-10.08S82.73,1529,82.73,1535s2.26,10,5.65,10S94.06,1541,94.06,1535Z" transform="translate(-0.47 -57)"/><path d="M110.48,1535c0-8.69,4.42-13.73,9.43-13.73,2.55,0,4.32,1.44,5.72,3.07l-1.69,2.93c-1.15-1.39-2.34-2.35-3.92-2.35-3.53,0-6.12,4.08-6.12,10.08s2.44,10,6,10a6.18,6.18,0,0,0,4.61-2.59l1.4,2.93a8.2,8.2,0,0,1-6.29,3.31C114.47,1548.63,110.48,1543.64,110.48,1535Z" transform="translate(-0.47 -57)"/><path d="M127.94,1535c0-8.69,4.28-13.73,9.07-13.73s9.07,5,9.07,13.73-4.29,13.63-9.07,13.63S127.94,1543.64,127.94,1535Zm14.75,0c0-6-2.3-10.08-5.68-10.08s-5.65,4.08-5.65,10.08,2.26,10,5.65,10S142.69,1541,142.69,1535Z" transform="translate(-0.47 -57)"/><path d="M151.23,1521.94h2.7l.28,3.75h.11c1.88-2.45,3.89-4.42,6.55-4.42,4.11,0,6,3.55,6,10.22V1548h-3.28v-15.94c0-4.9-1.11-7-3.7-7-2,0-3.39,1.34-5.37,4V1548h-3.27Z" transform="translate(-0.47 -57)"/><path d="M171,1545l1.62-2.88c1.69,1.83,3.45,3.07,5.79,3.07,2.6,0,3.85-1.82,3.85-4.08,0-2.64-2.3-3.84-4.46-4.94-2.73-1.35-5.83-3.12-5.83-7.54,0-4.13,2.48-7.39,6.73-7.39a8.73,8.73,0,0,1,6.08,2.93l-1.58,2.83c-1.37-1.34-2.73-2.3-4.5-2.3-2.45,0-3.56,1.72-3.56,3.74,0,2.5,2.12,3.41,4.32,4.51,2.84,1.44,6,3,6,7.92,0,4.23-2.52,7.73-7.13,7.73A10.22,10.22,0,0,1,171,1545Z" transform="translate(-0.47 -57)"/><path d="M188.6,1535c0-8.45,4.28-13.73,8.81-13.73,5,0,7.78,4.8,7.78,12.24a23.45,23.45,0,0,1-.14,2.5H191.87c.22,5.57,2.77,9.12,6.48,9.12a7.09,7.09,0,0,0,4.9-2.07l1.18,2.88a9.75,9.75,0,0,1-6.48,2.69C192.77,1548.63,188.6,1543.59,188.6,1535Zm13.71-2.11c0-5.28-1.8-8.12-4.86-8.12-2.77,0-5.22,3-5.62,8.12Z" transform="translate(-0.47 -57)"/><path d="M222.4,1549.74l.18-4.76c-1.59,2.07-3.64,3.65-5.91,3.65-4.89,0-8.06-4.94-8.06-13.63,0-8.45,4-13.73,8.46-13.73,2.27,0,3.89,1.1,5.58,3.17h.11l.32-2.5h2.59V1559H222.4Zm0-8.36V1527.7c-1.66-2-3.13-2.73-4.75-2.73-3.17,0-5.66,4-5.66,10,0,6.29,1.95,10,5.4,10C219.19,1545,220.78,1543.78,222.4,1541.38Z" transform="translate(-0.47 -57)"/><path d="M232.08,1538.46v-16.52h3.28v16c0,4.85,1.08,6.91,3.67,6.91,2,0,3.42-1.3,5.29-4.42v-18.48h3.28V1548h-2.74l-.25-4.08h-.11c-1.83,2.83-3.78,4.7-6.48,4.7C233.92,1548.63,232.08,1545.08,232.08,1538.46Z" transform="translate(-0.47 -57)"/><path d="M253,1541.24c0-5.66,3.71-8.5,12-9.75,0-3.36-.83-6.57-4-6.57-2.26,0-4.32,1.39-5.86,2.78l-1.3-3c1.8-1.54,4.57-3.41,7.7-3.41,4.76,0,6.77,4.27,6.77,10.7v16h-2.7l-.29-3.12h-.1c-1.88,2.06-4.07,3.74-6.48,3.74C255.41,1548.63,253,1545.94,253,1541.24Zm12,.43v-7.29c-6.59,1-8.82,3.21-8.82,6.57,0,3,1.51,4.18,3.45,4.18S263.08,1543.93,265,1541.67Z" transform="translate(-0.47 -57)"/><path d="M274.53,1539.94v-14.45h-2.92v-3.31l3.06-.24.4-7.3h2.73v7.3h5.29v3.55H277.8V1540c0,3.22.76,5,3,5a5.62,5.62,0,0,0,2.23-.67l.65,3.26a9.74,9.74,0,0,1-3.6,1C275.93,1548.63,274.53,1545.18,274.53,1539.94Z" transform="translate(-0.47 -57)"/><path d="M287.09,1545.32c0-2,1.08-3.41,2.37-3.41s2.38,1.44,2.38,3.41-1.08,3.31-2.38,3.31S287.09,1547.29,287.09,1545.32Z" transform="translate(-0.47 -57)"/><path d="M307.42,1512.82h6.63c8.1,0,12.45,6.29,12.45,17.47S322.15,1548,314.19,1548h-6.77Zm6.34,31.54c6.23,0,9.29-5.19,9.29-14.07s-3.06-13.87-9.29-13.87h-3v27.94Z" transform="translate(-0.47 -57)"/><path d="M331.62,1538.46v-16.52h3.27v16c0,4.85,1.08,6.91,3.67,6.91,2,0,3.42-1.3,5.29-4.42v-18.48h3.28V1548h-2.74l-.25-4.08H344c-1.84,2.83-3.79,4.7-6.48,4.7C333.45,1548.63,331.62,1545.08,331.62,1538.46Z" transform="translate(-0.47 -57)"/><path d="M353.11,1513.73c0-1.77,1-2.83,2.27-2.83s2.26,1.06,2.26,2.83-1,2.84-2.26,2.84S353.11,1515.37,353.11,1513.73Zm.61,8.21H357V1548h-3.28Z" transform="translate(-0.47 -57)"/><path d="M361.42,1545l1.62-2.88c1.7,1.83,3.46,3.07,5.8,3.07,2.59,0,3.85-1.82,3.85-4.08,0-2.64-2.3-3.84-4.46-4.94-2.74-1.35-5.83-3.12-5.83-7.54,0-4.13,2.48-7.39,6.73-7.39a8.75,8.75,0,0,1,6.08,2.93l-1.58,2.83c-1.37-1.34-2.74-2.3-4.5-2.3a3.41,3.41,0,0,0-3.57,3.74c0,2.5,2.13,3.41,4.32,4.51,2.85,1.44,6,3,6,7.92,0,4.23-2.52,7.73-7.13,7.73A10.24,10.24,0,0,1,361.42,1545Z" transform="translate(-0.47 -57)"/><path d="M388.6,1541.24c0-5.66,3.71-8.5,12-9.75,0-3.36-.83-6.57-4-6.57-2.27,0-4.32,1.39-5.87,2.78l-1.29-3c1.8-1.54,4.57-3.41,7.7-3.41,4.75,0,6.77,4.27,6.77,10.7v16h-2.7l-.29-3.12h-.11c-1.87,2.06-4.07,3.74-6.48,3.74C391.05,1548.63,388.6,1545.94,388.6,1541.24Zm12,.43v-7.29c-6.59,1-8.82,3.21-8.82,6.57,0,3,1.51,4.18,3.46,4.18S398.71,1543.93,400.62,1541.67Z" transform="translate(-0.47 -57)"/><path d="M409.87,1538.46v-16.52h3.28v16c0,4.85,1.08,6.91,3.67,6.91,2,0,3.42-1.3,5.29-4.42v-18.48h3.28V1548h-2.74l-.25-4.08h-.11c-1.83,2.83-3.78,4.7-6.48,4.7C411.71,1548.63,409.87,1545.08,409.87,1538.46Z" transform="translate(-0.47 -57)"/><path d="M432.55,1539.94v-14.45h-2.91v-3.31l3.06-.24.39-7.3h2.74v7.3h5.29v3.55h-5.29V1540c0,3.22.75,5,3,5a5.53,5.53,0,0,0,2.23-.67l.65,3.26a9.64,9.64,0,0,1-3.6,1C434,1548.63,432.55,1545.18,432.55,1539.94Z" transform="translate(-0.47 -57)"/><path d="M443.53,1535c0-8.45,4.29-13.73,8.82-13.73,5,0,7.78,4.8,7.78,12.24a20.81,20.81,0,0,1-.15,2.5H446.81c.22,5.57,2.77,9.12,6.48,9.12a7.07,7.07,0,0,0,4.89-2.07l1.19,2.88a9.77,9.77,0,0,1-6.48,2.69C447.71,1548.63,443.53,1543.59,443.53,1535Zm13.72-2.11c0-5.28-1.8-8.12-4.86-8.12-2.77,0-5.22,3-5.62,8.12Z" transform="translate(-0.47 -57)"/><path d="M465,1521.94h2.7l.29,3.79h.11c1.69-2.49,3.74-4.46,6.08-4.46,3,0,4.61,1.92,5.4,5,2-2.93,4.07-5,6.44-5,4,0,5.94,3.55,5.94,10.22V1548h-3.27v-15.94c0-4.9-1.15-7-3.64-7-1.51,0-3.09,1.3-4.93,4V1548H476.8v-15.94c0-4.9-1.16-7-3.64-7-1.48,0-3.13,1.3-4.93,4V1548H465Z" transform="translate(-0.47 -57)"/><path d="M504.8,1521.94h3.42l3.67,14.83c.61,2.55,1.23,5.24,1.84,7.69h.14c.58-2.45,1.23-5.14,1.8-7.69l3.71-14.83h3.24l-7,26.07h-3.81Z" transform="translate(-0.47 -57)"/><path d="M524.78,1535c0-8.45,4.28-13.73,8.82-13.73,5,0,7.78,4.8,7.78,12.24a23.12,23.12,0,0,1-.15,2.5H528.06c.21,5.57,2.77,9.12,6.48,9.12a7.09,7.09,0,0,0,4.89-2.07l1.19,2.88a9.79,9.79,0,0,1-6.48,2.69C529,1548.63,524.78,1543.59,524.78,1535Zm13.72-2.11c0-5.28-1.8-8.12-4.86-8.12-2.78,0-5.22,3-5.62,8.12Z" transform="translate(-0.47 -57)"/><path d="M546.2,1542.82v-33h3.28v33.31c0,1.35.43,1.87.93,1.87a2.36,2.36,0,0,0,.69-.09l.46,3.36a4,4,0,0,1-1.9.38C547.21,1548.63,546.2,1546.52,546.2,1542.82Z" transform="translate(-0.47 -57)"/><path d="M564.34,1535c0-8.45,4.28-13.73,8.82-13.73,5,0,7.77,4.8,7.77,12.24a23.45,23.45,0,0,1-.14,2.5H567.62c.21,5.57,2.77,9.12,6.47,9.12a7.09,7.09,0,0,0,4.9-2.07l1.19,2.88a9.79,9.79,0,0,1-6.48,2.69C568.52,1548.63,564.34,1543.59,564.34,1535Zm13.71-2.11c0-5.28-1.8-8.12-4.86-8.12-2.77,0-5.21,3-5.61,8.12Z" transform="translate(-0.47 -57)"/><path d="M585.51,1538.46v-16.52h3.27v16c0,4.85,1.08,6.91,3.67,6.91,2,0,3.42-1.3,5.3-4.42v-18.48H601V1548h-2.73l-.26-4.08h-.1c-1.84,2.83-3.78,4.7-6.48,4.7C587.34,1548.63,585.51,1545.08,585.51,1538.46Z" transform="translate(-0.47 -57)"/><path d="M607.61,1521.94h2.7l.29,3.79h.11c1.69-2.49,3.74-4.46,6.08-4.46,3,0,4.61,1.92,5.4,5,2-2.93,4.07-5,6.44-5,4,0,5.94,3.55,5.94,10.22V1548H631.3v-15.94c0-4.9-1.16-7-3.64-7-1.51,0-3.1,1.3-4.93,4V1548h-3.28v-15.94c0-4.9-1.15-7-3.63-7-1.48,0-3.13,1.3-4.93,4V1548h-3.28Z" transform="translate(-0.47 -57)"/><path d="M649.69,1513.73c0-1.77,1-2.83,2.27-2.83s2.27,1.06,2.27,2.83-1,2.84-2.27,2.84S649.69,1515.37,649.69,1513.73Zm.61,8.21h3.28V1548H650.3Z" transform="translate(-0.47 -57)"/><path d="M660.2,1521.94h2.7l.29,4.75h.11c1.37-3.31,3.35-5.42,5.54-5.42a3.26,3.26,0,0,1,2.09.58l-.61,3.84a3.6,3.6,0,0,0-1.91-.44c-1.62,0-3.64,1.54-4.93,6V1548H660.2Z" transform="translate(-0.47 -57)"/><path d="M673.56,1513.73c0-1.77,1-2.83,2.27-2.83s2.26,1.06,2.26,2.83-1,2.84-2.26,2.84S673.56,1515.37,673.56,1513.73Zm.61,8.21h3.28V1548h-3.28Z" transform="translate(-0.47 -57)"/><path d="M683.82,1538.46v-16.52h3.27v16c0,4.85,1.08,6.91,3.67,6.91,2,0,3.42-1.3,5.3-4.42v-18.48h3.27V1548H696.6l-.26-4.08h-.1c-1.84,2.83-3.78,4.7-6.48,4.7C685.65,1548.63,683.82,1545.08,683.82,1538.46Z" transform="translate(-0.47 -57)"/><path d="M705.92,1521.94h2.7l.29,4.75H709c1.36-3.31,3.34-5.42,5.54-5.42a3.28,3.28,0,0,1,2.09.58l-.61,3.84a3.6,3.6,0,0,0-1.91-.44c-1.62,0-3.64,1.54-4.93,6V1548h-3.28Z" transform="translate(-0.47 -57)"/><path d="M718,1535c0-8.45,4.28-13.73,8.82-13.73,5,0,7.77,4.8,7.77,12.24a23.45,23.45,0,0,1-.14,2.5H721.29c.22,5.57,2.77,9.12,6.48,9.12a7.09,7.09,0,0,0,4.9-2.07l1.19,2.88a9.79,9.79,0,0,1-6.48,2.69C722.19,1548.63,718,1543.59,718,1535Zm13.71-2.11c0-5.28-1.8-8.12-4.86-8.12-2.77,0-5.22,3-5.61,8.12Z" transform="translate(-0.47 -57)"/><path d="M747.39,1535c0-8.45,4-13.73,8.46-13.73,2.3,0,3.78,1.15,5.5,3.07l-.18-4.51v-10h3.28V1548h-2.66l-.33-3.07h-.07c-1.55,2-3.6,3.69-5.94,3.69C750.56,1548.63,747.39,1543.69,747.39,1535Zm13.78,6.38V1527.7c-1.65-2-3.13-2.73-4.75-2.73-3.16,0-5.65,4-5.65,10,0,6.29,2,10,5.4,10C758,1545,759.55,1543.78,761.17,1541.38Z" transform="translate(-0.47 -57)"/><path d="M769.64,1535c0-8.69,4.28-13.73,9.07-13.73s9.07,5,9.07,13.73-4.28,13.63-9.07,13.63S769.64,1543.64,769.64,1535Zm14.75,0c0-6-2.3-10.08-5.68-10.08s-5.65,4.08-5.65,10.08,2.26,10,5.65,10S784.39,1541,784.39,1535Z" transform="translate(-0.47 -57)"/><path d="M792.93,1542.82v-33h3.27v33.31c0,1.35.44,1.87.94,1.87a2.3,2.3,0,0,0,.68-.09l.47,3.36a4,4,0,0,1-1.91.38C793.94,1548.63,792.93,1546.52,792.93,1542.82Z" transform="translate(-0.47 -57)"/><path d="M801.71,1535c0-8.69,4.29-13.73,9.07-13.73s9.07,5,9.07,13.73-4.28,13.63-9.07,13.63S801.71,1543.64,801.71,1535Zm14.76,0c0-6-2.3-10.08-5.69-10.08s-5.65,4.08-5.65,10.08,2.27,10,5.65,10S816.47,1541,816.47,1535Z" transform="translate(-0.47 -57)"/><path d="M825,1521.94h2.7l.29,4.75h.11c1.37-3.31,3.35-5.42,5.54-5.42a3.26,3.26,0,0,1,2.09.58l-.61,3.84a3.6,3.6,0,0,0-1.91-.44c-1.62,0-3.64,1.54-4.93,6V1548H825Z" transform="translate(-0.47 -57)"/><path d="M847.71,1513.73c0-1.77,1-2.83,2.27-2.83s2.27,1.06,2.27,2.83-1,2.84-2.27,2.84S847.71,1515.37,847.71,1513.73Zm.62,8.21h3.27V1548h-3.27Z" transform="translate(-0.47 -57)"/><path d="M858.23,1521.94h2.7l.28,3.75h.11c1.87-2.45,3.89-4.42,6.55-4.42,4.11,0,6,3.55,6,10.22V1548h-3.28v-15.94c0-4.9-1.11-7-3.71-7-2,0-3.38,1.34-5.36,4V1548h-3.27Z" transform="translate(-0.47 -57)"/><path d="M889.58,1509.8h3.27v10.46l-.11,5.38c1.8-2.4,3.82-4.37,6.48-4.37,4.11,0,6,3.55,6,10.22V1548h-3.28v-15.94c0-4.9-1.11-7-3.71-7-2,0-3.38,1.34-5.36,4V1548h-3.27Z" transform="translate(-0.47 -57)"/><path d="M910,1535c0-8.45,4.29-13.73,8.82-13.73,5,0,7.78,4.8,7.78,12.24a23.12,23.12,0,0,1-.15,2.5H913.23c.21,5.57,2.77,9.12,6.48,9.12a7.09,7.09,0,0,0,4.89-2.07l1.19,2.88a9.79,9.79,0,0,1-6.48,2.69C914.13,1548.63,910,1543.59,910,1535Zm13.72-2.11c0-5.28-1.8-8.12-4.86-8.12-2.77,0-5.22,3-5.62,8.12Z" transform="translate(-0.47 -57)"/><path d="M931.37,1521.94h2.7l.29,3.75h.11c1.87-2.45,3.88-4.42,6.55-4.42,4.1,0,6,3.55,6,10.22V1548h-3.27v-15.94c0-4.9-1.12-7-3.71-7-2,0-3.38,1.34-5.36,4V1548h-3.28Z" transform="translate(-0.47 -57)"/><path d="M952,1535c0-8.45,4-13.73,8.46-13.73,2.31,0,3.78,1.15,5.51,3.07l-.18-4.51v-10H969V1548h-2.67l-.32-3.07H966c-1.55,2-3.6,3.69-5.94,3.69C955.13,1548.63,952,1543.69,952,1535Zm13.79,6.38V1527.7c-1.66-2-3.13-2.73-4.75-2.73-3.17,0-5.65,4-5.65,10,0,6.29,1.94,10,5.4,10C962.55,1545,964.13,1543.78,965.75,1541.38Z" transform="translate(-0.47 -57)"/><path d="M975.69,1521.94h2.7l.28,4.75h.11c1.37-3.31,3.35-5.42,5.55-5.42a3.25,3.25,0,0,1,2.08.58l-.61,3.84a3.57,3.57,0,0,0-1.91-.44c-1.62,0-3.63,1.54-4.93,6V1548h-3.27Z" transform="translate(-0.47 -57)"/><path d="M987.78,1535c0-8.45,4.29-13.73,8.82-13.73,5,0,7.78,4.8,7.78,12.24a20.81,20.81,0,0,1-.15,2.5H991.06c.22,5.57,2.77,9.12,6.48,9.12a7.07,7.07,0,0,0,4.89-2.07l1.19,2.88a9.77,9.77,0,0,1-6.48,2.69C992,1548.63,987.78,1543.59,987.78,1535Zm13.72-2.11c0-5.28-1.8-8.12-4.86-8.12-2.77,0-5.22,3-5.62,8.12Z" transform="translate(-0.47 -57)"/><path d="M1009.2,1521.94h2.7l.29,4.75h.11c1.37-3.31,3.35-5.42,5.54-5.42a3.26,3.26,0,0,1,2.09.58l-.61,3.84a3.6,3.6,0,0,0-1.91-.44c-1.62,0-3.64,1.54-4.93,6V1548h-3.28Z" transform="translate(-0.47 -57)"/><path d="M1022.56,1513.73c0-1.77,1-2.83,2.27-2.83s2.26,1.06,2.26,2.83-1,2.84-2.26,2.84S1022.56,1515.37,1022.56,1513.73Zm.61,8.21h3.28V1548h-3.28Z" transform="translate(-0.47 -57)"/><path d="M1033.65,1539.94v-14.45h-2.92v-3.31l3.06-.24.4-7.3h2.73v7.3h5.29v3.55h-5.29V1540c0,3.22.76,5,3,5a5.62,5.62,0,0,0,2.23-.67l.65,3.26a9.74,9.74,0,0,1-3.6,1C1035.05,1548.63,1033.65,1545.18,1033.65,1539.94Z" transform="translate(-0.47 -57)"/><path d="M1055.38,1513.73c0-1.77,1-2.83,2.27-2.83s2.27,1.06,2.27,2.83-1,2.84-2.27,2.84S1055.38,1515.37,1055.38,1513.73Zm.62,8.21h3.27V1548H1056Z" transform="translate(-0.47 -57)"/><path d="M1065.9,1521.94h2.7l.28,3.75h.11c1.87-2.45,3.89-4.42,6.55-4.42,4.11,0,6,3.55,6,10.22V1548h-3.28v-15.94c0-4.9-1.11-7-3.7-7-2,0-3.39,1.34-5.37,4V1548h-3.27Z" transform="translate(-0.47 -57)"/><path d="M1094.4,1521.94h3.42l3.68,14.83c.61,2.55,1.22,5.24,1.83,7.69h.15c.57-2.45,1.22-5.14,1.8-7.69l3.7-14.83h3.24l-6.94,26.07h-3.82Z" transform="translate(-0.47 -57)"/><path d="M1115.75,1538.46v-16.52H1119v16c0,4.85,1.08,6.91,3.67,6.91,2,0,3.42-1.3,5.29-4.42v-18.48h3.28V1548h-2.74l-.25-4.08h-.11c-1.84,2.83-3.78,4.7-6.48,4.7C1117.59,1548.63,1115.75,1545.08,1115.75,1538.46Z" transform="translate(-0.47 -57)"/><path d="M1137.86,1542.82v-33h3.27v33.31c0,1.35.43,1.87.94,1.87a2.3,2.3,0,0,0,.68-.09l.47,3.36a4.05,4.05,0,0,1-1.91.38C1138.86,1548.63,1137.86,1546.52,1137.86,1542.82Z" transform="translate(-0.47 -57)"/><path d="M1148.12,1521.94h2.7l.28,3h.11c1.76-1.92,4-3.65,6.23-3.65,5,0,7.77,5.28,7.77,13.3,0,8.93-4,14.06-8.49,14.06-1.77,0-3.64-1.1-5.4-3l.07,4.56V1559h-3.27Zm13.67,12.67c0-5.76-1.44-9.64-5.14-9.64-1.66,0-3.35,1.24-5.26,3.6v13.68c1.76,2,3.49,2.73,4.79,2.73C1159.42,1545,1161.79,1541.1,1161.79,1534.61Z" transform="translate(-0.47 -57)"/><path d="M1170.18,1538.46v-16.52h3.28v16c0,4.85,1.08,6.91,3.67,6.91,2,0,3.42-1.3,5.29-4.42v-18.48h3.28V1548H1183l-.25-4.08h-.11c-1.83,2.83-3.78,4.7-6.48,4.7C1172,1548.63,1170.18,1545.08,1170.18,1538.46Z" transform="translate(-0.47 -57)"/><path d="M1192.86,1539.94v-14.45H1190v-3.31l3.06-.24.39-7.3h2.74v7.3h5.29v3.55h-5.29V1540c0,3.22.75,5,3,5a5.53,5.53,0,0,0,2.23-.67l.65,3.26a9.64,9.64,0,0,1-3.6,1C1194.27,1548.63,1192.86,1545.18,1192.86,1539.94Z" transform="translate(-0.47 -57)"/><path d="M1203.77,1541.24c0-5.66,3.71-8.5,12-9.75,0-3.36-.82-6.57-4-6.57-2.26,0-4.32,1.39-5.86,2.78l-1.3-3c1.8-1.54,4.57-3.41,7.7-3.41,4.75,0,6.77,4.27,6.77,10.7v16h-2.7l-.29-3.12H1216c-1.87,2.06-4.06,3.74-6.47,3.74C1206.22,1548.63,1203.77,1545.94,1203.77,1541.24Zm12,.43v-7.29c-6.58,1-8.81,3.21-8.81,6.57,0,3,1.51,4.18,3.45,4.18S1213.89,1543.93,1215.79,1541.67Z" transform="translate(-0.47 -57)"/><path d="M1225.34,1539.94v-14.45h-2.92v-3.31l3.06-.24.4-7.3h2.73v7.3h5.29v3.55h-5.29V1540c0,3.22.76,5,3,5a5.62,5.62,0,0,0,2.24-.67l.64,3.26a9.64,9.64,0,0,1-3.59,1C1226.74,1548.63,1225.34,1545.18,1225.34,1539.94Z" transform="translate(-0.47 -57)"/><path d="M1236.32,1535c0-8.45,4.28-13.73,8.81-13.73,5,0,7.78,4.8,7.78,12.24a23.45,23.45,0,0,1-.14,2.5h-13.18c.22,5.57,2.77,9.12,6.48,9.12a7.09,7.09,0,0,0,4.9-2.07l1.18,2.88a9.75,9.75,0,0,1-6.48,2.69C1240.49,1548.63,1236.32,1543.59,1236.32,1535Zm13.71-2.11c0-5.28-1.8-8.12-4.86-8.12-2.77,0-5.22,3-5.61,8.12Z" transform="translate(-0.47 -57)"/><path d="M1264.25,1521.94h3.42l3.67,14.83c.61,2.55,1.22,5.24,1.83,7.69h.15c.57-2.45,1.22-5.14,1.8-7.69l3.7-14.83h3.24l-6.94,26.07h-3.82Z" transform="translate(-0.47 -57)"/><path d="M1284.23,1535c0-8.45,4.28-13.73,8.81-13.73,5,0,7.78,4.8,7.78,12.24a23.45,23.45,0,0,1-.14,2.5H1287.5c.22,5.57,2.77,9.12,6.48,9.12a7.09,7.09,0,0,0,4.9-2.07l1.18,2.88a9.75,9.75,0,0,1-6.48,2.69C1288.4,1548.63,1284.23,1543.59,1284.23,1535Zm13.71-2.11c0-5.28-1.8-8.12-4.86-8.12-2.77,0-5.22,3-5.61,8.12Z" transform="translate(-0.47 -57)"/><path d="M1305.65,1542.82v-33h3.27v33.31c0,1.35.43,1.87.94,1.87a2.3,2.3,0,0,0,.68-.09l.47,3.36a4.05,4.05,0,0,1-1.91.38C1306.65,1548.63,1305.65,1546.52,1305.65,1542.82Z" transform="translate(-0.47 -57)"/><path d="M1315.29,1513.73c0-1.77,1-2.83,2.27-2.83s2.27,1.06,2.27,2.83-1,2.84-2.27,2.84S1315.29,1515.37,1315.29,1513.73Zm.62,8.21h3.27V1548h-3.27Z" transform="translate(-0.47 -57)"/><path d="M1326.38,1539.94v-14.45h-2.92v-3.31l3.06-.24.4-7.3h2.74v7.3H1335v3.55h-5.29V1540c0,3.22.75,5,3,5a5.62,5.62,0,0,0,2.23-.67l.65,3.26a9.69,9.69,0,0,1-3.6,1C1327.78,1548.63,1326.38,1545.18,1326.38,1539.94Z" transform="translate(-0.47 -57)"/><path d="M1347.26,1535c0-8.45,4.28-13.73,8.82-13.73,5,0,7.77,4.8,7.77,12.24a23.45,23.45,0,0,1-.14,2.5h-13.18c.22,5.57,2.77,9.12,6.48,9.12a7.09,7.09,0,0,0,4.9-2.07l1.18,2.88a9.74,9.74,0,0,1-6.47,2.69C1351.43,1548.63,1347.26,1543.59,1347.26,1535Zm13.71-2.11c0-5.28-1.8-8.12-4.86-8.12-2.77,0-5.22,3-5.61,8.12Z" transform="translate(-0.47 -57)"/><path d="M1366.48,1545l1.62-2.88c1.69,1.83,3.46,3.07,5.8,3.07,2.59,0,3.85-1.82,3.85-4.08,0-2.64-2.31-3.84-4.47-4.94-2.73-1.35-5.83-3.12-5.83-7.54,0-4.13,2.49-7.39,6.73-7.39a8.77,8.77,0,0,1,6.09,2.93l-1.59,2.83c-1.37-1.34-2.73-2.3-4.5-2.3-2.44,0-3.56,1.72-3.56,3.74,0,2.5,2.12,3.41,4.32,4.51,2.84,1.44,6,3,6,7.92,0,4.23-2.52,7.73-7.12,7.73A10.24,10.24,0,0,1,1366.48,1545Z" transform="translate(-0.47 -57)"/><path d="M1383.33,1545l1.62-2.88c1.69,1.83,3.45,3.07,5.79,3.07,2.59,0,3.85-1.82,3.85-4.08,0-2.64-2.3-3.84-4.46-4.94-2.73-1.35-5.83-3.12-5.83-7.54,0-4.13,2.48-7.39,6.73-7.39a8.73,8.73,0,0,1,6.08,2.93l-1.58,2.83c-1.37-1.34-2.74-2.3-4.5-2.3-2.45,0-3.56,1.72-3.56,3.74,0,2.5,2.12,3.41,4.32,4.51,2.84,1.44,6,3,6,7.92,0,4.23-2.52,7.73-7.13,7.73A10.22,10.22,0,0,1,1383.33,1545Z" transform="translate(-0.47 -57)"/><path d="M1400.9,1535c0-8.45,4.28-13.73,8.81-13.73,5,0,7.78,4.8,7.78,12.24a23.45,23.45,0,0,1-.14,2.5h-13.18c.22,5.57,2.77,9.12,6.48,9.12a7.09,7.09,0,0,0,4.9-2.07l1.18,2.88a9.75,9.75,0,0,1-6.48,2.69C1405.07,1548.63,1400.9,1543.59,1400.9,1535Zm13.71-2.11c0-5.28-1.8-8.12-4.86-8.12-2.77,0-5.22,3-5.62,8.12Z" transform="translate(-0.47 -57)"/><path d="M1431.67,1521.94h2.7l.29,3.79h.11c1.69-2.49,3.74-4.46,6.08-4.46,3,0,4.61,1.92,5.4,5,2-2.93,4.07-5,6.44-5,4,0,5.94,3.55,5.94,10.22V1548h-3.27v-15.94c0-4.9-1.16-7-3.64-7-1.51,0-3.1,1.3-4.93,4V1548h-3.28v-15.94c0-4.9-1.15-7-3.63-7-1.48,0-3.13,1.3-4.93,4V1548h-3.28Z" transform="translate(-0.47 -57)"/><path d="M1463.53,1535c0-8.69,4.28-13.73,9.07-13.73s9.07,5,9.07,13.73-4.28,13.63-9.07,13.63S1463.53,1543.64,1463.53,1535Zm14.76,0c0-6-2.31-10.08-5.69-10.08S1467,1529,1467,1535s2.27,10,5.65,10S1478.29,1541,1478.29,1535Z" transform="translate(-0.47 -57)"/><path d="M1485.17,1532.89h9.21v3.36h-9.21Z" transform="translate(-0.47 -57)"/></g></g><g id="LOGO"><path id="logoP" class="cls-1" d="M1100.77,63h159.81c82.21,0,181.42-3.28,181.42,53.31,0,36-92.62,46.76-183.39,46.76h-66V224.6h-91.87Zm91.87,74.64h46.25c25.11,0,112.88,0,112.88-24.61,0-23-94.48-19.68-114.21-19.68h-44.92Z" transform="translate(-0.47 -57)"/><path id="logoL" class="cls-1" d="M801.7,62.58h82.44V193h184.31l-.57,31.17H801.7Z" transform="translate(-0.47 -57)"/><path id="logoU" class="cls-1" d="M499.28,60l-.82,79.57c0,27.89,15.58,52.49,90.23,51.67,64.43-5.5,77.92-18.86,86.95-47.57,5.44-17.34,1.94-56.13.82-83.67h91c5.74,144.83,6.76,166.27-178.82,167.33C402.94,221.72,404.58,205.87,409.87,60Z" transform="translate(-0.47 -57)"/><path id="logoT" class="cls-1" d="M169.27,98.34l-116-.19V62.24H376V98.15l-119.76.19V224.66h-87Z" transform="translate(-0.47 -57)"/></g></svg>